<?xml version="1.0" standalone="no"?>
<!DOCTYPE svg PUBLIC "-//W3C//DTD SVG 1.1//EN" "http://www.w3.org/Graphics/SVG/1.1/DTD/svg11.dtd" >
<svg xmlns="http://www.w3.org/2000/svg">
<metadata></metadata>
<defs>
<font id="conduititcstditalic" horiz-adv-x="504" >
<font-face units-per-em="1000" ascent="800" descent="-200" />
<missing-glyph horiz-adv-x="176" />
<glyph unicode="ff" horiz-adv-x="535" d="M622 625l-25 -48q-5 -7 -10 -7q-9 1 -21 1q-41 0 -75.5 -28.5t-41.5 -69.5l-11 -63q-1 -10 9 -10h72q9 0 8 -10l-9 -48q-1 -10 -11 -10h-72q-11 0 -12 -10l-59 -335q-13 -74 -73 -125.5t-134 -51.5q-11 0 -39 2q-12 1 -6 13l25 48q3 7 11 7q9 -1 21 -1q41 0 74.5 28.5 t40.5 69.5l61 345q1 10 -8 10h-165q-11 0 -12 -10l-67 -380q-13 -74 -73 -125.5t-134 -51.5q-11 0 -39 2q-12 1 -6 13l25 48q3 7 11 7q9 -1 21 -1q41 0 74.5 28.5t40.5 69.5l69 390q1 10 -8 10h-26q-10 0 -9 10l9 48q1 10 12 10h26q10 0 11 10l10 53q14 74 74 125.5 t133 51.5q75 0 114 -43q11 -11 24 -1q59 44 126 44q10 0 38 -2q13 -2 6 -13zM384 513q2 3 0 8q-28 50 -82 50q-41 0 -75 -28.5t-41 -69.5l-11 -63q-1 -10 9 -10h165q10 0 11 10l10 53q6 32 14 50z" />
<glyph unicode="fi" horiz-adv-x="488" d="M480 591q-4 -20 -21 -35t-38 -15t-32.5 14.5t-7.5 35.5q4 20 21 34.5t37 14.5q21 0 33 -14t8 -35zM443 436l-75 -426q-1 -10 -12 -10h-59q-9 0 -8 10l75 426q1 10 12 10h59q9 0 8 -10zM305 629l-9 -49q-2 -9 -9 -10q-40 -7 -68 -34.5t-34 -62.5l-11 -63q-1 -10 9 -10h72 q9 0 8 -10l-9 -48q-1 -10 -11 -10h-72q-11 0 -12 -10l-67 -380q-13 -74 -73 -125.5t-134 -51.5q-11 0 -39 2q-12 1 -6 13l25 48q3 7 11 7q9 -1 21 -1q41 0 74.5 28.5t40.5 69.5l69 390q1 10 -8 10h-26q-10 0 -9 10l9 48q1 10 12 10h26q10 0 11 10l10 53q17 91 99 143 q43 27 91 33q5 1 7.5 -2t1.5 -8z" />
<glyph unicode="fl" horiz-adv-x="488" d="M475 620l-107 -610q-1 -10 -12 -10h-59q-9 0 -8 10l95 541q1 10 -8 10h-77q-40 0 -73.5 -28.5t-41.5 -69.5l-10 -53q-1 -10 9 -10h72q9 0 8 -10l-9 -48q-1 -10 -11 -10h-72q-11 0 -12 -10l-67 -380q-13 -74 -73 -125.5t-134 -51.5q-11 0 -39 2q-12 1 -6 13l25 48 q3 7 11 7q9 -1 21 -1q41 0 74.5 28.5t40.5 69.5l69 390q1 10 -8 10h-26q-10 0 -9 10l9 48q1 10 12 10h26q10 0 11 10l8 43q14 74 74 125.5t133 51.5h156q11 0 8 -10z" />
<glyph unicode="ffi" horiz-adv-x="752" d="M744 591q-4 -20 -21 -35t-38 -15t-32.5 14.5t-7.5 35.5t20.5 35t37.5 14t33 -14t8 -35zM707 436l-75 -426q-1 -10 -12 -10h-59q-9 0 -8 10l75 426q1 10 12 10h59q9 0 8 -10zM568 629l-9 -50q-2 -9 -10 -10q-39 -7 -67 -34t-34 -62l-11 -63q-1 -10 9 -10h72q9 0 8 -10 l-9 -48q-1 -10 -11 -10h-72q-11 0 -12 -10l-59 -335q-13 -74 -73 -125.5t-134 -51.5q-11 0 -39 2q-12 1 -6 13l25 48q3 7 11 7q9 -1 21 -1q41 0 74.5 28.5t40.5 69.5l61 345q1 10 -8 10h-165q-11 0 -12 -10l-67 -380q-13 -74 -73 -125.5t-134 -51.5q-11 0 -39 2q-12 1 -6 13 l25 48q3 7 11 7q9 -1 21 -1q41 0 74.5 28.5t40.5 69.5l69 390q1 10 -8 10h-26q-10 0 -9 10l9 48q1 10 12 10h26q10 0 11 10l10 53q14 74 74 125.5t133 51.5q75 0 114 -43q10 -10 24 -1q24 18 52 29q23 9 56 14q5 1 7.5 -2t1.5 -8zM383 513q2 3 0 8q-28 50 -82 50 q-41 0 -75 -28.5t-41 -69.5l-11 -63q-1 -10 9 -10h165q10 0 11 10l10 53q6 32 14 50z" />
<glyph unicode="ffl" horiz-adv-x="751" d="M738 620l-107 -610q-1 -10 -12 -10h-59q-9 0 -8 10l95 541q1 10 -8 10h-76q-40 0 -74 -28.5t-42 -69.5l-10 -53q-1 -10 9 -10h72q9 0 8 -10l-9 -48q-1 -10 -11 -10h-72q-11 0 -12 -10l-59 -335q-13 -74 -73 -125.5t-134 -51.5q-11 0 -39 2q-12 1 -6 13l25 48q3 7 11 7 q9 -1 21 -1q41 0 74.5 28.5t40.5 69.5l61 345q1 10 -8 10h-165q-11 0 -12 -10l-67 -380q-13 -74 -73 -125.5t-134 -51.5q-11 0 -39 2q-12 1 -6 13l25 48q3 7 11 7q9 -1 21 -1q41 0 74.5 28.5t40.5 69.5l69 390q1 10 -8 10h-26q-10 0 -9 10l9 48q1 10 12 10h26q10 0 11 10 l10 53q14 74 74 125.5t133 51.5q82 0 124 -53q4 -7 12 -1q62 44 126 44h155q11 0 8 -10zM385 516q-11 26 -34 40.5t-50 14.5q-41 0 -75 -28.5t-41 -69.5l-11 -63q-1 -10 9 -10h165q10 0 11 10l8 43q6 36 17 55q2 5 1 8z" />
<glyph unicode=" "  horiz-adv-x="176" />
<glyph unicode="&#x09;" horiz-adv-x="176" />
<glyph unicode="&#xa0;" horiz-adv-x="176" />
<glyph unicode="!" horiz-adv-x="275" d="M238 620l-45 -256l-51 -171q-3 -9 -12 -9h-16q-8 0 -8 9l8 171l45 256q3 10 12 10h59q11 0 8 -10zM149 40q-4 -22 -22 -37t-40 -15t-34.5 15t-8.5 37q4 21 22 36.5t39 15.5q23 0 35.5 -15t8.5 -37z" />
<glyph unicode="&#x22;" horiz-adv-x="276" d="M306 621l-47 -155q-3 -9 -11 -9h-21q-9 0 -9 9l7 155q0 11 11 11h61q12 0 9 -11zM174 621l-48 -155q-3 -9 -11 -9h-21q-9 0 -9 9l7 155q0 11 11 11h62q12 0 9 -11z" />
<glyph unicode="#" horiz-adv-x="557" d="M502 436l-13 -48q-3 -10 -13 -10h-63q-9 0 -10 -6l-30 -107q-4 -13 10 -13h66q10 0 7 -10l-13 -48q-3 -10 -13 -10h-73q-9 0 -10 -6l-48 -171q-1 -7 -10 -7h-33q-13 0 -10 13l44 159q3 12 -10 12h-117q-9 0 -10 -6l-49 -171q-1 -7 -10 -7h-33q-13 0 -10 13l45 159 q3 12 -10 12h-57q-10 0 -7 10l13 48q3 10 13 10h63q8 0 10 8l30 106q3 12 -10 12h-65q-10 0 -7 10l13 48q3 10 13 10h72q8 0 10 8l48 169q1 7 10 7h33q13 0 10 -13l-44 -158q-4 -13 10 -13h117q8 0 10 8l49 169q1 7 10 7h33q13 0 10 -13l-45 -158q-4 -13 10 -13h57 q10 0 7 -10zM345 366q3 12 -10 12h-117q-9 0 -10 -6l-30 -107q-4 -13 10 -13h118q8 0 10 8z" />
<glyph unicode="$" d="M461 552q4 -8 -7 -14l-57 -26q-9 -4 -12 3q-18 42 -57 53q-11 4 -14 -10q-7 -49 -34 -193q0 -7 5 -9q75 -38 102 -74q36 -50 23 -125q-12 -68 -62.5 -113t-125.5 -53q-8 -1 -9 -10l-6 -32q-1 -10 -12 -10h-26q-9 0 -8 10l5 31q3 10 -6 10q-71 0 -108 34q-23 20 -35 56 q-3 8 7 13l57 27q8 4 12 -5q23 -56 78 -56q10 0 11 10l37 211q2 6 -4 9q-70 34 -97 68q-35 47 -23 116q12 67 59.5 111.5t119.5 54.5q9 2 10 10l6 32q1 10 12 10h26q9 0 8 -10l-5 -31q-1 -9 6 -10q53 -5 87 -34q23 -19 37 -54zM268 555q1 7 -2 9.5t-10 0.5 q-33 -10 -55.5 -35.5t-27.5 -56.5q-9 -47 50 -85q14 -8 17 9zM331 157q10 58 -55 99q-13 8 -16 -9l-31 -175q-2 -13 9 -10q36 9 61.5 35t31.5 60z" />
<glyph unicode="%" horiz-adv-x="484" d="M265 545l-18 -100q-7 -38 -35.5 -61.5t-69.5 -23.5t-61.5 23.5t-13.5 61.5l18 100q7 38 35.5 61.5t69.5 23.5t61.5 -23.5t13.5 -61.5zM452 616l-369 -610q-3 -6 -10 -6h-24q-15 0 -7 14l369 610q5 6 10 6h24q15 0 7 -14zM427 185l-18 -100q-7 -38 -35.5 -61.5 t-69.5 -23.5t-61.5 23.5t-13.5 61.5l18 100q7 38 35.5 61.5t69.5 23.5t61.5 -23.5t13.5 -61.5zM213 545q3 15 -6.5 26.5t-24.5 11.5t-28 -11.5t-16 -26.5l-18 -100q-3 -15 6 -26t25 -11q15 0 28 11t16 26zM375 185q3 15 -6.5 26.5t-25.5 11.5q-15 0 -27.5 -11.5t-15.5 -26.5 l-18 -100q-3 -15 6 -26t24 -11q16 0 29 11t16 26z" />
<glyph unicode="&#x26;" horiz-adv-x="619" d="M603 344l-11 -58q-1 -10 -11 -10h-20q-70 0 -117 -98l-8 -17q-3 -8 1 -13q46 -60 111 -77q7 -2 5 -10l-11 -60q-2 -12 -13 -10q-39 4 -70 20q-36 17 -70 55q-7 7 -15 -2q-62 -74 -164 -74h-31q-82 0 -122 47.5t-24 127.5l5 26q6 31 32.5 66.5t59.5 52.5q15 7 5 17 q-32 31 -44.5 61.5t-5.5 72.5q14 82 70 130.5t139 48.5q81 0 121.5 -48.5t24.5 -128.5l-4 -20q-7 -34 -37.5 -71t-78.5 -54q-7 -3 -9 -8t4 -11q25 -21 62 -68q9 -12 17 4q56 119 188 119h12q10 0 9 -10zM363 473q6 41 -17.5 69.5t-63.5 28.5q-41 0 -75 -28.5t-41 -69.5 q-11 -58 65 -117q7 -5 10 -5q38 2 75.5 31.5t43.5 70.5zM333 128q3 5 0 9q-47 73 -73 96q-8 7 -18 14t-22.5 15.5t-20.5 14.5q-4 3 -10 1q-64 -30 -73 -90l-5 -31q-7 -41 16.5 -69.5t63.5 -28.5h31q29 0 59.5 19t51.5 50z" />
<glyph unicode="'" horiz-adv-x="151" d="M174 621l-48 -155q-3 -9 -11 -9h-21q-9 0 -9 9l7 155q0 11 11 11h62q12 0 9 -11z" />
<glyph unicode="(" horiz-adv-x="350" d="M364 721l-9 -50q-2 -9 -9 -10q-40 -7 -67 -34t-33 -62l-103 -581q-6 -35 11.5 -62.5t54.5 -34.5q7 -1 6 -10l-8 -49q-3 -11 -13 -10q-73 7 -106 53q-36 46 -22 123l99 561q15 85 76 132q47 37 114 44q5 1 7.5 -2t1.5 -8z" />
<glyph unicode=")" horiz-adv-x="350" d="M269 555l-99 -561q-15 -87 -80 -135q-46 -34 -110 -41q-6 -1 -8.5 2t-0.5 8l8 49q2 8 10 10q39 7 67 34.5t34 62.5l103 581q6 35 -12.5 62t-54.5 34q-8 2 -7 10l9 50q2 12 13 10q64 -7 99 -44q44 -49 29 -132z" />
<glyph unicode="*" horiz-adv-x="378" d="M400 591q5 -9 -7 -14l-108 -44q-8 -3 -9 -9t6 -9l92 -42q11 -5 3 -14l-29 -38q-7 -10 -15 -3l-79 61q-5 5 -10.5 2t-6.5 -11l-6 -107q0 -11 -12 -11h-45q-11 0 -8 11l32 107q2 8 -2.5 11t-12.5 -2l-96 -61q-11 -6 -15 3l-15 39q-3 10 8 14l104 41q8 3 9 8.5t-6 9.5 l-89 44q-11 5 -3 14l29 38q7 11 15 3l73 -63q6 -5 11.5 -2t6.5 11l8 106q2 11 12 11h45q11 0 8 -11l-31 -106q-2 -8 2.5 -11t11.5 2l99 63q11 6 15 -3z" />
<glyph unicode="+" d="M452 255l-6 -33q-1 -10 -12 -10h-164q-10 0 -11 -10l-29 -164q-3 -10 -12 -10h-33q-11 0 -8 10l29 164q1 10 -9 10h-164q-9 0 -8 10l6 33q1 10 12 10h164q10 0 11 10l29 164q3 10 12 10h33q11 0 8 -10l-29 -164q-1 -10 9 -10h164q9 0 8 -10z" />
<glyph unicode="," horiz-adv-x="203" d="M117 90l-11 -59q-12 -69 -52 -114q-23 -27 -63 -48q-9 -4 -12 5l-8 22q-3 9 4 13q42 30 56 95q1 10 -9 10h-13q-9 0 -8 10l12 66q1 10 12 10h84q9 0 8 -10z" />
<glyph unicode="-" horiz-adv-x="255" d="M205 253l-11 -59q-1 -10 -12 -10h-151q-9 0 -8 10l11 59q1 10 11 10h151q10 0 9 -10z" />
<glyph unicode="." horiz-adv-x="203" d="M108 40q-4 -22 -22 -37t-40 -15t-34 15t-8 37q4 21 21.5 36.5t38.5 15.5q23 0 35.5 -15t8.5 -37z" />
<glyph unicode="/" horiz-adv-x="299" d="M364 616l-369 -610q-3 -6 -10 -6h-34q-15 0 -7 14l369 610q5 6 10 6h34q15 0 7 -14z" />
<glyph unicode="0" d="M472 473l-55 -316q-13 -75 -69.5 -121t-137.5 -46h-31q-80 0 -120 46t-27 121l55 316q13 75 69.5 121t137.5 46h31q80 0 120 -46t27 -121zM393 473q7 41 -16.5 69.5t-63.5 28.5h-31q-41 0 -75 -28.5t-41 -69.5l-55 -316q-7 -41 16.5 -69.5t63.5 -28.5h31q41 0 75 29 t41 69z" />
<glyph unicode="1" d="M381 59l-8 -49q-1 -10 -12 -10h-304q-9 0 -8 10l8 49q3 10 12 10h103q11 0 12 10l69 392q2 8 -3.5 10.5t-12.5 -3.5l-67 -58q-8 -7 -14 0l-29 36q-5 8 3 14l185 157q3 3 7 3h27q11 0 8 -10l-95 -541q-1 -10 8 -10h103q11 0 8 -10z" />
<glyph unicode="2" d="M467 473q-6 -33 -21.5 -62.5t-31 -47.5t-46.5 -40t-46 -30.5t-52 -28.5q-67 -36 -103.5 -68.5t-45.5 -83.5l-6 -33q-1 -10 8 -10h255q11 0 8 -10l-8 -49q-1 -10 -12 -10h-334q-9 0 -8 10l18 102q14 79 62 127t125 91q5 3 25 14t25.5 14t22 13t22 14.5t18 14t17.5 16.5 t12.5 16.5t11 19.5t5.5 21q7 40 -16.5 69t-63.5 29h-39q-57 0 -98 -55q-7 -8 -14 -4l-48 26q-9 4 -2 14q21 30 51 52q51 36 123 36h39q80 0 120.5 -46t26.5 -121z" />
<glyph unicode="3" d="M456 463l-3 -15q-7 -37 -37 -70.5t-63 -47.5q-8 -4 -2 -10q27 -15 46.5 -50.5t11.5 -73.5l-6 -31q-16 -81 -72 -128t-137 -47h-30q-77 0 -114 40q-18 18 -29 50q-3 8 7 13l57 27q9 4 12 -5q21 -56 79 -56h30q41 0 75.5 29t41.5 69l6 36q7 40 -17.5 69t-64.5 29h-75 q-9 0 -8 10l9 48q1 10 11 10h75q42 0 77 29t40 70l2 15q5 41 -18 69.5t-63 28.5h-30q-59 0 -99 -55q-7 -9 -14 -5l-48 27q-8 4 -2 14q20 28 42 45q53 43 133 43h30q81 0 122 -48.5t25 -128.5z" />
<glyph unicode="4" d="M464 207l-9 -49q-1 -10 -12 -10h-72q-9 0 -12 -10l-22 -128q-1 -10 -12 -10h-59q-9 0 -8 10l22 128q3 10 -8 10h-254q-9 0 -8 10l11 64l338 404q4 4 9 4h68q11 0 8 -10l-69 -393q-1 -10 8 -10h72q10 0 9 -10zM355 537l-3 1q-13 -24 -26 -40l-220 -265q-12 -16 5 -16h173 q11 0 12 10l47 265z" />
<glyph unicode="5" d="M483 620l-8 -49q-3 -10 -12 -10h-235q-11 0 -12 -10l-32 -182q-1 -10 8 -10h78q82 0 122.5 -47t24.5 -127l-4 -20q-16 -81 -71.5 -128t-136.5 -47h-31q-77 0 -114 40q-18 20 -28 49q-3 9 6 14l57 27q10 5 13 -5q21 -56 78 -56h31q40 0 74.5 29t41.5 69l6 36q7 40 -17 69 t-64 29h-157q-9 0 -8 10l56 319q3 10 12 10h314q11 0 8 -10z" />
<glyph unicode="6" d="M475 552q4 -8 -7 -14l-57 -26q-9 -5 -12 4q-20 55 -80 55h-30q-41 0 -75 -28.5t-41 -69.5l-25 -144q-2 -8 3.5 -10.5t12.5 3.5q46 43 99 43h30q71 0 111 -47t27 -120l-7 -41q-13 -74 -70.5 -120.5t-137.5 -46.5h-30q-80 0 -119.5 46t-26.5 121l55 316q13 75 69.5 121 t136.5 46h30q79 0 118 -44q16 -17 26 -44zM352 198q7 40 -17 69t-65 29h-30q-41 0 -74.5 -29t-40.5 -69l-7 -41q-7 -40 16.5 -69t63.5 -29h30q41 0 75.5 29t41.5 69z" />
<glyph unicode="7" d="M491 620l-18 -102q-7 -43 -25 -77t-46.5 -60t-50.5 -41t-58 -37q-8 -5 -12 -7q-55 -33 -86.5 -65t-39.5 -74l-26 -147q-1 -10 -12 -10h-59q-9 0 -8 10l26 147q7 38 22.5 68.5t42 55t46 38.5t54.5 35t53.5 33.5t43 33.5t38 44.5t18.5 52.5l6 33q1 10 -8 10h-255 q-11 0 -8 10l8 49q3 10 12 10h334q11 0 8 -10z" />
<glyph unicode="8" d="M471 463l-4 -20q-7 -37 -37 -70t-63 -48q-3 -2 -3.5 -5t2.5 -5q26 -16 45.5 -51t11.5 -73l-5 -26q-16 -81 -71.5 -128t-136.5 -47h-31q-82 0 -122 47.5t-24 127.5l5 26q7 37 36.5 71.5t65.5 51.5q4 1 4.5 5t-2.5 5q-28 15 -48 48t-12 71l4 20q16 81 72 129t136 48h31 q81 0 121.5 -48.5t24.5 -128.5zM393 473q6 41 -17 69.5t-63 28.5h-31q-42 0 -76 -28.5t-40 -69.5l-3 -20q-6 -42 17 -70.5t63 -28.5h31q42 0 76 29t40 70zM343 188q7 41 -17 69.5t-64 28.5h-31q-41 0 -74.5 -29t-40.5 -69l-5 -31q-7 -41 16.5 -69.5t63.5 -28.5h31 q41 0 75 29t41 69z" />
<glyph unicode="9" d="M455 473l-55 -316q-13 -75 -70 -121t-138 -46h-30q-69 0 -106 32q-24 22 -36 58q-3 9 6 13l58 27q9 4 12 -5q20 -56 78 -56h30q41 0 75.5 29t41.5 69l19 110q2 8 -4 11t-13 -4q-43 -44 -98 -44h-30q-71 0 -110.5 47t-26.5 120l13 76q13 74 69.5 120.5t136.5 46.5h30 q80 0 120.5 -46t27.5 -121zM376 473q7 40 -17 69t-64 29h-30q-41 0 -75 -29t-41 -69l-13 -76q-7 -40 17 -69.5t64 -29.5h30q40 0 74.5 29.5t41.5 69.5z" />
<glyph unicode=":" horiz-adv-x="203" d="M157 315q-4 -22 -22.5 -37t-40.5 -15q-21 0 -33 15t-8 37q4 21 21.5 36.5t38.5 15.5q22 0 35 -15t9 -37zM108 40q-4 -22 -22 -37t-40 -15t-34 15t-8 37q4 21 21.5 36.5t38.5 15.5q23 0 35.5 -15t8.5 -37z" />
<glyph unicode=";" horiz-adv-x="203" d="M157 315q-4 -22 -22.5 -37t-40.5 -15q-21 0 -33 15t-8 37q4 21 21.5 36.5t38.5 15.5q22 0 35 -15t9 -37zM117 90l-11 -59q-14 -74 -54 -117q-26 -28 -61 -45q-9 -4 -12 5l-8 22q-3 9 4 13q42 30 56 95q1 10 -9 10h-13q-9 0 -8 10l12 66q1 10 12 10h84q9 0 8 -10z" />
<glyph unicode="&#x3c;" d="M430 425q4 -8 -7 -14l-307 -161q-7 -4 -8 -9t5 -9l251 -161q9 -5 1 -15l-23 -27q-7 -8 -14 -4l-279 179q-5 3 -3 9l9 54q2 7 7 9l343 181q9 4 13 -4z" />
<glyph unicode="=" d="M468 347l-6 -33q-1 -10 -11 -10h-401q-10 0 -9 10l6 33q1 10 12 10h401q9 0 8 -10zM436 163l-6 -33q-1 -10 -12 -10h-401q-9 0 -8 10l6 33q1 10 12 10h401q9 0 8 -10z" />
<glyph unicode="&#x3e;" d="M432 267l-9 -53q-2 -7 -7 -9l-342 -180q-9 -4 -13 4l-12 28q-4 8 7 14l306 161q7 4 8 9t-5 9l-250 161q-8 5 -1 14l22 28q7 8 15 4l278 -181q5 -4 3 -9z" />
<glyph unicode="?" horiz-adv-x="496" d="M460 473q-7 -39 -21.5 -67t-41 -47.5t-39 -26t-46.5 -21.5q-42 -18 -64.5 -37t-28.5 -54q-2 -11 -3 -25q0 -11 -12 -11h-58q-9 0 -8 8q2 30 4 43q3 14 7 26.5t11.5 23.5t12.5 19t16.5 16.5t16.5 13t20 12t18.5 9.5t21 9.5t18.5 8.5q43 20 66.5 41t30.5 59q7 40 -16.5 69 t-63.5 29h-39q-59 0 -99 -55q-7 -9 -14 -5l-48 27q-9 4 -2 14q23 33 54 54q49 34 121 34h39q80 0 120 -46t27 -121zM217 40q-4 -22 -21.5 -37t-39.5 -15t-34.5 15t-8.5 37q4 21 22 36.5t39 15.5q22 0 34.5 -14.5t8.5 -37.5z" />
<glyph unicode="@" horiz-adv-x="705" d="M652 457l-37 -210q-7 -40 -37 -65t-74 -25h-13q-43 0 -66 28q-6 7 -18 0q-38 -28 -80 -28q-58 0 -86.5 33t-19.5 87l14 81q9 54 49.5 87t98.5 33q31 0 55 -17q12 -7 14 2l1 7q1 8 10 8h38q10 0 9 -10l-39 -216q-3 -16 6 -26.5t25 -10.5h12q15 0 28 11.5t15 25.5l37 205 q9 51 -19.5 83t-85.5 32h-176q-57 0 -96.5 -32t-48.5 -83l-50 -283q-9 -51 19 -83t85 -32h261q10 0 9 -10l-7 -39q-1 -10 -12 -10h-261q-83 0 -124.5 48.5t-27.5 125.5l50 283q14 77 72 125t141 48h176q83 0 125 -48t28 -125zM432 350q5 28 -12.5 48.5t-46.5 20.5 q-28 0 -52 -20t-29 -49l-12 -65q-5 -29 11.5 -49.5t45.5 -20.5t53.5 21t29.5 49z" />
<glyph unicode="A" horiz-adv-x="441" d="M385 13q2 -13 -12 -13h-63q-8 0 -9 7l-14 135q0 6 -9 6h-180q-9 0 -11 -6l-62 -135q-3 -7 -11 -7h-58q-14 0 -8 13l294 610q3 7 11 7h46q8 0 9 -7zM277 230l-18 222l-2 72h-3q-11 -35 -27 -72l-99 -222q-7 -13 7 -13h129q15 0 13 13z" />
<glyph unicode="B" horiz-adv-x="513" d="M485 453l-2 -10q-6 -30 -32 -64.5t-56 -50.5q-16 -8 -4 -17q25 -17 40 -51t8 -69l-3 -15q-16 -81 -71.5 -128.5t-136.5 -47.5h-197q-9 0 -8 10l107 610q3 10 12 10h197q81 0 121.5 -48.5t24.5 -128.5zM409 463q8 40 -16.5 69t-65.5 29h-119q-11 0 -12 -10l-33 -187 q-1 -10 8 -10h119q41 0 75 29t42 70zM360 188q7 40 -17 68.5t-65 28.5h-119q-9 0 -12 -10l-34 -196q-1 -10 8 -10h119q41 0 75 28.5t41 69.5z" />
<glyph unicode="C" horiz-adv-x="461" d="M470 552q4 -8 -7 -14l-58 -26q-8 -4 -11 4q-24 55 -79 55h-31q-41 0 -75 -28.5t-41 -69.5l-55 -316q-7 -41 16.5 -69.5t63.5 -28.5h31q57 0 99 57q8 8 14 4l48 -27q8 -4 2 -13q-26 -36 -56 -56q-49 -34 -119 -34h-31q-80 0 -120 46t-27 121l55 316q13 75 69.5 121 t137.5 46h31q76 0 115 -41q16 -17 28 -47z" />
<glyph unicode="D" horiz-adv-x="523" d="M485 453l-49 -275q-14 -82 -70.5 -130t-137.5 -48h-197q-9 0 -8 10l107 610q3 10 12 10h197q81 0 120.5 -48t25.5 -129zM409 463q7 40 -17.5 69t-64.5 29h-119q-11 0 -12 -10l-83 -472q-1 -10 8 -10h119q41 0 74.5 28.5t41.5 69.5z" />
<glyph unicode="E" horiz-adv-x="444" d="M460 552q3 -9 -6 -14l-58 -27q-8 -4 -12 5q-21 55 -79 55h-30q-41 0 -76.5 -28.5t-40.5 -69.5l-2 -15q-5 -42 18 -70.5t63 -28.5h75q10 0 9 -10l-9 -48q-1 -10 -12 -10h-75q-40 0 -74.5 -29t-41.5 -69l-6 -36q-7 -40 17 -69t64 -29h30q60 0 99 56q7 9 14 5l47 -27 q9 -4 3 -13q-21 -32 -46 -50q-52 -40 -129 -40h-30q-82 0 -122.5 47.5t-24.5 127.5l6 31q8 38 39 74t61 50q8 6 2 10q-28 14 -46 47.5t-12 70.5l3 18q13 80 70 127t139 47h30q72 0 110 -35q22 -20 33 -53z" />
<glyph unicode="F" horiz-adv-x="433" d="M484 620l-8 -49q-3 -10 -12 -10h-256q-11 0 -12 -10l-33 -187q-1 -10 8 -10h210q10 0 9 -10l-9 -49q-1 -10 -12 -10h-210q-9 0 -12 -10l-46 -265q-1 -10 -12 -10h-58q-9 0 -8 10l107 610q3 10 12 10h334q11 0 8 -10z" />
<glyph unicode="G" horiz-adv-x="499" d="M488 552q4 -8 -7 -14l-58 -26q-8 -4 -11 4q-23 55 -79 55h-49q-41 0 -75 -28.5t-41 -69.5l-55 -316q-7 -41 16.5 -69.5t63.5 -28.5h31q40 0 74.5 29t41.5 69l13 73q1 10 -9 10h-102q-9 0 -8 10l9 49q1 10 11 10h181q10 0 9 -10l-25 -142q-13 -74 -70 -120.5t-137 -46.5 h-31q-80 0 -120 46t-27 121l55 316q13 75 69.5 121t137.5 46h49q74 0 113 -39q20 -21 30 -49z" />
<glyph unicode="H" horiz-adv-x="554" d="M530 620l-107 -610q-1 -10 -12 -10h-59q-9 0 -8 10l46 265q3 10 -8 10h-223q-9 0 -12 -10l-46 -265q-1 -10 -12 -10h-58q-9 0 -8 10l107 610q3 10 12 10h58q11 0 8 -10l-45 -256q-1 -10 8 -10h223q11 0 12 10l45 256q3 10 12 10h59q11 0 8 -10z" />
<glyph unicode="I" horiz-adv-x="232" d="M208 620l-107 -610q-1 -10 -12 -10h-58q-9 0 -8 10l107 610q3 10 12 10h58q11 0 8 -10z" />
<glyph unicode="J" horiz-adv-x="400" d="M391 620l-80 -453q-14 -78 -71.5 -127.5t-136.5 -49.5q-76 0 -117 47q-17 18 -26 43q-4 9 7 14l57 26q8 4 11 -4q10 -27 32 -42t48 -15q41 0 75 29t41 69l81 463q3 10 12 10h59q11 0 8 -10z" />
<glyph unicode="K" horiz-adv-x="509" d="M533 614l-226 -230q-9 -11 -2 -27l152 -342q2 -6 -1.5 -10.5t-10.5 -4.5h-74q-6 0 -8 5l-127 290q-6 13 -14 3l-86 -89l-35 -199q-1 -10 -12 -10h-58q-9 0 -8 10l107 610q3 10 12 10h58q11 0 8 -10l-49 -282q-2 -9 4 -11t13 5l275 294q4 4 9 4h68q8 0 9.5 -5t-4.5 -11z " />
<glyph unicode="L" horiz-adv-x="430" d="M385 59l-8 -49q-1 -10 -12 -10h-334q-9 0 -8 10l107 610q3 10 12 10h58q11 0 8 -10l-95 -541q-1 -10 8 -10h256q11 0 8 -10z" />
<glyph unicode="M" horiz-adv-x="646" d="M622 620l-107 -610q-1 -10 -12 -10h-58q-9 0 -8 10l36 206q26 143 50 232l-4 1q-13 -32 -37 -70l-176 -281q-3 -6 -10 -6h-27q-7 0 -8 6l-75 281q-10 40 -13 70l-4 -1q-4 -73 -32 -232l-36 -206q-1 -10 -12 -10h-58q-9 0 -8 10l107 610q3 10 12 10h55q7 0 8 -6l92 -369 q4 -24 6 -40h3q4 9 21 40l222 369q5 6 10 6h55q11 0 8 -10z" />
<glyph unicode="N" horiz-adv-x="554" d="M530 620l-107 -610q-1 -10 -12 -10h-56q-6 0 -8 5l-155 414q-7 16 -11 47h-3q-6 -55 -40 -244l-37 -212q-1 -10 -12 -10h-58q-9 0 -8 10l107 610q3 10 12 10h55q6 0 8 -5l155 -417q6 -19 10 -43h3q12 82 40 240l38 215q3 10 12 10h59q11 0 8 -10z" />
<glyph unicode="O" horiz-adv-x="509" d="M474 473l-55 -316q-13 -75 -69.5 -121t-137.5 -46h-31q-80 0 -120 46t-27 121l55 316q13 75 69.5 121t137.5 46h31q80 0 120 -46t27 -121zM395 473q7 41 -16.5 69.5t-63.5 28.5h-31q-41 0 -75 -28.5t-41 -69.5l-55 -316q-7 -41 16.5 -69.5t63.5 -28.5h31q41 0 75 29 t41 69z" />
<glyph unicode="P" horiz-adv-x="468" d="M485 453q-13 -73 -70 -120.5t-137 -47.5h-119q-9 0 -12 -10l-46 -265q-1 -10 -12 -10h-58q-9 0 -8 10l107 610q3 10 12 10h197q81 0 120.5 -48.5t25.5 -128.5zM409 463q8 40 -16.5 69t-65.5 29h-119q-11 0 -12 -10l-33 -187q-1 -10 8 -10h119q41 0 75 29t42 70z" />
<glyph unicode="Q" horiz-adv-x="509" d="M474 473l-55 -316q-11 -65 -59.5 -110t-119.5 -55q-9 -1 -10 -10l-11 -64q-3 -10 -12 -10h-49q-11 0 -8 10l11 64q1 8 -8 10q-68 10 -99 54.5t-20 110.5l55 316q13 75 69.5 121t137.5 46h31q80 0 120 -46t27 -121zM395 473q7 41 -16.5 69.5t-63.5 28.5h-31 q-41 0 -75 -28.5t-41 -69.5l-55 -316q-11 -65 48 -92q13 -5 16 9l8 45q1 10 12 10h49q9 0 8 -10l-8 -44q-1 -7 2 -9t10 0q70 25 82 91z" />
<glyph unicode="R" d="M485 453l-2 -10q-8 -39 -43.5 -79t-71.5 -55q-8 -3 -6 -11l48 -285q2 -13 -11 -13h-66q-6 0 -8 7l-46 272q0 6 -7 6h-113q-9 0 -12 -10l-46 -265q-1 -10 -12 -10h-58q-9 0 -8 10l107 610q3 10 12 10h197q81 0 121.5 -48.5t24.5 -128.5zM409 463q8 40 -16.5 69t-65.5 29 h-119q-11 0 -12 -10l-33 -187q-1 -10 8 -10h119q41 0 75 29t42 70z" />
<glyph unicode="S" horiz-adv-x="458" d="M441 552q4 -8 -7 -14l-58 -26q-8 -4 -11 4q-23 55 -79 55h-16q-45 0 -76.5 -27t-39.5 -71q-3 -17 2 -31.5t12 -24.5t26 -22.5t30 -18l37 -18.5l4 -2l4 -2q32 -16 52 -29.5t41.5 -36.5t28 -56t-0.5 -75q-13 -74 -69.5 -120.5t-137.5 -46.5h-43q-71 0 -110 36 q-21 21 -32 53q-3 9 6 14l57 27q10 5 13 -5q21 -56 78 -56h43q42 0 76 28.5t41 69.5q4 24 -2 43t-24.5 34.5t-34.5 25t-45 23.5q-15 7 -22 10.5t-20.5 11t-21 13t-19 14t-17.5 16.5t-14 18t-11.5 21.5t-6.5 24.5t-2.5 28.5t3.5 32.5q13 73 70.5 120t136.5 47h16 q77 0 116 -42q17 -19 27 -46z" />
<glyph unicode="T" horiz-adv-x="369" d="M415 620l-8 -49q-3 -10 -12 -10h-118q-11 0 -12 -10l-95 -541q-1 -10 -12 -10h-59q-9 0 -8 10l95 541q1 10 -8 10h-118q-11 0 -8 10l8 49q3 10 12 10h335q11 0 8 -10z" />
<glyph unicode="U" horiz-adv-x="529" d="M510 620l-81 -463q-13 -74 -70 -120.5t-137 -46.5h-31q-80 0 -120 46.5t-27 120.5l81 463q3 10 12 10h59q11 0 8 -10l-81 -463q-7 -41 16.5 -69.5t63.5 -28.5h31q41 0 75 29t41 69l81 463q3 10 12 10h59q11 0 8 -10z" />
<glyph unicode="V" horiz-adv-x="441" d="M492 617l-294 -610q-3 -7 -11 -7h-45q-8 0 -9 7l-78 610q-2 13 12 13h63q8 0 9 -7l46 -443q0 -17 3 -41h5q11 30 17 40l200 444q3 7 11 7h63q14 0 8 -13z" />
<glyph unicode="W" horiz-adv-x="667" d="M708 618l-241 -610q-3 -8 -11 -8h-45q-8 0 -9 7l-44 379q-3 33 -1 54h-2q-6 -21 -22 -54l-179 -379q-3 -7 -11 -7h-45q-7 0 -9 8l-24 610q0 12 12 12h65q9 0 9 -8l6 -408q0 -50 -2 -65h2q7 22 26 64l185 412q3 7 11 7h23q9 0 9 -7l42 -405q3 -38 2 -68h2q11 41 22 69 l145 401q2 8 11 8h65q12 0 8 -12z" />
<glyph unicode="X" horiz-adv-x="453" d="M487 616l-201 -288q-9 -12 -4 -24l98 -290q5 -14 -11 -14h-74q-7 0 -8 6l-65 228q-1 5 -4 6.5t-7 0t-7 -6.5l-149 -228q-4 -6 -10 -6h-73q-18 0 -6 15l203 289q8 12 4 21l-102 290q-5 15 12 15h73q6 0 8 -6l70 -227q2 -7 8 -7t10 7l145 227q4 6 10 6h73q16 0 7 -14z" />
<glyph unicode="Y" horiz-adv-x="411" d="M470 615l-230 -325l-49 -280q-1 -10 -12 -10h-59q-9 0 -8 10l49 280l-116 325q-5 15 12 15h70q6 0 8 -6l74 -240q1 -5 4 -6.5t7 0t7 6.5l158 240q4 6 10 6h69q18 0 6 -15z" />
<glyph unicode="Z" horiz-adv-x="411" d="M429 616l-331 -533q-9 -14 6 -14h231q11 0 8 -10l-8 -49q-1 -10 -12 -10h-344q-16 0 -7 14l329 533q9 14 -6 14h-207q-11 0 -8 10l8 49q3 10 12 10h322q16 0 7 -14z" />
<glyph unicode="[" horiz-adv-x="346" d="M356 722l-8 -49q-3 -10 -12 -10h-71q-11 0 -12 -10l-134 -758q-1 -10 9 -10h71q9 0 8 -10l-9 -48q-1 -10 -11 -10h-150q-10 0 -9 10l158 895q3 10 12 10h150q11 0 8 -10z" />
<glyph unicode="\" horiz-adv-x="299" d="M257 14q3 -14 -11 -14h-34q-6 0 -8 6l-153 610q-3 14 11 14h34q6 0 8 -6z" />
<glyph unicode="]" horiz-adv-x="346" d="M298 722l-158 -895q-1 -10 -11 -10h-150q-10 0 -9 10l9 48q1 10 12 10h72q10 0 11 10l134 758q1 10 -8 10h-72q-11 0 -8 10l8 49q3 10 12 10h150q11 0 8 -10z" />
<glyph unicode="^" horiz-adv-x="502" d="M454 306h-64l-139 261h-3l-138 -261h-63l186 334h33z" />
<glyph unicode="_" horiz-adv-x="194" d="M127 -190l-4 -25q-1 -10 -12 -10h-210q-9 0 -8 10l4 25q3 10 12 10h210q11 0 8 -10z" />
<glyph unicode="`" horiz-adv-x="494" d="M318 516q3 -6 0 -10.5t-10 -4.5h-27q-11 0 -15 6l-98 110q-5 6 -1.5 11.5t11.5 5.5h76q8 0 12 -8z" />
<glyph unicode="a" horiz-adv-x="471" d="M426 436l-75 -426q-1 -10 -12 -10h-48q-9 0 -8 10l5 28q1 8 -4.5 10.5t-12.5 -3.5q-51 -45 -99 -45q-80 0 -120.5 46.5t-27.5 120.5l20 113q13 74 69.5 120t137.5 46q54 0 83 -43q5 -7 11 -4.5t8 10.5l5 27q1 10 12 10h48q9 0 8 -10zM320 280q7 40 -17 69t-64 29 t-74 -28.5t-42 -69.5l-20 -113q-7 -40 17 -69t64 -29t74.5 29t41.5 69z" />
<glyph unicode="b" horiz-adv-x="472" d="M414 280l-20 -113q-13 -74 -70 -120.5t-137 -46.5q-49 0 -83 44q-5 6 -10.5 3.5t-7.5 -10.5l-5 -27q-1 -10 -12 -10h-49q-9 0 -8 10l107 610q3 10 12 10h59q11 0 8 -10l-37 -209q-2 -8 3.5 -10.5t12.5 3.5q46 42 99 42q71 0 111 -46.5t27 -119.5zM335 280q7 40 -17 69 t-64 29t-74 -28.5t-42 -69.5l-20 -113q-7 -40 17 -69t64 -29t74.5 29t41.5 69z" />
<glyph unicode="c" horiz-adv-x="418" d="M396 369q3 -9 -7 -14l-58 -27q-8 -4 -11 4q-11 26 -32.5 41t-47.5 15q-45 0 -76.5 -28t-38.5 -70l-23 -133q-7 -42 14 -70t66 -28q57 0 99 57q8 8 14 4l48 -27q8 -4 2 -13q-26 -36 -56 -56q-49 -34 -119 -34q-80 0 -119.5 47t-27.5 120l23 133q12 72 69 119t137 47 q73 0 112 -36q21 -21 32 -51z" />
<glyph unicode="d" horiz-adv-x="471" d="M458 620l-107 -610q-1 -10 -12 -10h-48q-9 0 -8 10l5 28q1 8 -4.5 10.5t-12.5 -3.5q-51 -45 -99 -45q-80 0 -120.5 46.5t-27.5 120.5l20 113q13 73 69.5 119.5t127.5 46.5q55 0 83 -43q5 -7 10.5 -4t7.5 11l37 210q3 10 12 10h59q11 0 8 -10zM319 280q7 40 -16.5 69 t-63.5 29t-74 -28.5t-42 -69.5l-20 -113q-7 -40 17 -69t64 -29t74 29t41 69z" />
<glyph unicode="e" horiz-adv-x="448" d="M400 290l-12 -66q-1 -10 -11 -10h-255q-11 0 -12 -10l-8 -47q-7 -40 16.5 -69t63.5 -29q57 0 99 57q8 8 14 4l48 -27q8 -4 2 -13q-30 -41 -63 -61q-47 -29 -112 -29q-80 0 -120 46.5t-27 120.5l23 133q12 72 69 119t137 47q79 0 120 -46.5t28 -119.5zM322 295 q7 39 -16.5 66t-65.5 27q-45 0 -76 -28t-39 -70l-2 -11q-1 -3 2 -4.5t7 -1.5h176q11 0 12 10z" />
<glyph unicode="f" horiz-adv-x="269" d="M357 625l-24 -48q-4 -7 -11 -7q-9 1 -21 1q-41 0 -75 -28.5t-41 -69.5l-11 -63q-1 -10 9 -10h72q9 0 8 -10l-9 -48q-1 -10 -11 -10h-72q-11 0 -12 -10l-67 -380q-13 -74 -73 -125.5t-134 -51.5q-11 0 -39 2q-12 1 -6 13l25 48q3 7 11 7q9 -1 21 -1q41 0 74.5 28.5 t40.5 69.5l69 390q1 10 -8 10h-26q-10 0 -9 10l9 48q1 10 12 10h26q10 0 11 10l10 53q14 74 74 125.5t133 51.5q10 0 38 -2q12 -1 6 -13z" />
<glyph unicode="g" horiz-adv-x="471" d="M426 436l-87 -493q-14 -79 -68.5 -128.5t-139.5 -49.5q-83 0 -123 50q-14 18 -21 39q-3 10 7 14l57 26q8 4 13 -4q22 -56 79 -56q41 0 75 28.5t41 69.5l19 105q2 8 -3.5 10.5t-12.5 -3.5q-48 -44 -100 -44q-71 0 -111 47t-27 120l20 113q13 74 69.5 120t137.5 46 q54 0 83 -43q5 -7 11 -4.5t8 10.5l5 27q1 10 12 10h48q9 0 8 -10zM320 280q7 40 -17 69t-64 29t-74 -28.5t-42 -69.5l-20 -113q-7 -40 17 -69t64 -29t74.5 29t41.5 69z" />
<glyph unicode="h" horiz-adv-x="482" d="M414 280l-47 -270q-1 -10 -12 -10h-59q-9 0 -8 10l47 270q7 40 -17 69t-64 29q-41 0 -75 -29t-41 -69l-47 -270q-1 -10 -12 -10h-59q-9 0 -8 10l107 610q3 10 12 10h59q11 0 8 -10l-37 -209q-2 -8 3.5 -10.5t12.5 3.5q46 42 99 42q71 0 111 -46.5t27 -119.5z" />
<glyph unicode="i" horiz-adv-x="211" d="M203 591q-4 -20 -21 -35t-38 -15t-32.5 14.5t-7.5 35.5q4 20 21 34.5t37 14.5q21 0 33 -14t8 -35zM166 436l-75 -426q-1 -10 -12 -10h-59q-9 0 -8 10l75 426q1 10 12 10h59q9 0 8 -10z" />
<glyph unicode="j" horiz-adv-x="211" d="M203 591q-4 -20 -21 -35t-38 -15t-32.5 14.5t-7.5 35.5q4 20 21 34.5t37 14.5q21 0 33 -14t8 -35zM166 436l-87 -495q-12 -68 -65 -116.5t-125 -59.5q-6 -1 -8.5 2t-1.5 8l9 49q2 8 10 10q39 7 66.5 34.5t33.5 62.5l89 505q1 10 12 10h59q9 0 8 -10z" />
<glyph unicode="k" horiz-adv-x="434" d="M410 429l-149 -127q-7 -7 -4 -12l122 -275q3 -7 -0.5 -11t-11.5 -4h-74q-6 0 -8 5l-94 217q-5 11 -16 2l-55 -47l-29 -167q-1 -10 -12 -10h-59q-9 0 -8 10l107 610q3 10 12 10h59q11 0 8 -10l-58 -328q-2 -8 3.5 -10.5t12.5 3.5l172 158q3 3 8 3h70q8 0 9.5 -5.5 t-5.5 -11.5z" />
<glyph unicode="l" horiz-adv-x="211" d="M198 620l-107 -610q-1 -10 -12 -10h-59q-9 0 -8 10l107 610q3 10 12 10h59q11 0 8 -10z" />
<glyph unicode="m" horiz-adv-x="716" d="M648 280l-47 -270q-1 -10 -12 -10h-59q-9 0 -8 10l47 270q7 40 -15 69t-55 29q-31 0 -65 -29.5t-41 -68.5l-47 -270q-1 -10 -12 -10h-59q-9 0 -8 10l47 270q7 40 -15 69t-55 29q-32 0 -65.5 -29t-40.5 -69l-47 -270q-1 -10 -12 -10h-59q-9 0 -8 10l75 426q1 10 12 10h49 q9 0 8 -10l-5 -26q-2 -8 3 -11t12 3q47 44 100 44q70 0 100 -52q6 -10 16 0q56 52 129 52q72 0 111 -46.5t26 -119.5z" />
<glyph unicode="n" horiz-adv-x="482" d="M414 280l-47 -270q-1 -10 -12 -10h-59q-9 0 -8 10l47 270q7 40 -17 69t-64 29q-41 0 -75 -29t-41 -69l-47 -270q-1 -10 -12 -10h-59q-9 0 -8 10l75 426q1 10 12 10h49q9 0 8 -10l-5 -26q-2 -8 3.5 -11t12.5 4q44 43 99 43q80 0 120.5 -46t27.5 -120z" />
<glyph unicode="o" horiz-adv-x="456" d="M400 290l-23 -134q-12 -72 -69.5 -119t-137.5 -47q-79 0 -119 46.5t-28 119.5l23 134q12 72 69 119t137 47q79 0 119.5 -46.5t28.5 -119.5zM322 295q7 39 -16.5 66t-65.5 27q-45 0 -76.5 -28t-38.5 -70l-24 -139q-7 -39 16 -66t65 -27q45 0 77 28t39 70z" />
<glyph unicode="p" horiz-adv-x="472" d="M414 280l-20 -113q-13 -73 -69.5 -120t-127.5 -47q-48 0 -83 44q-5 6 -11 3t-8 -11l-44 -251q-1 -10 -12 -10h-59q-9 0 -8 10l115 651q1 10 12 10h49q9 0 8 -10l-5 -26q-2 -8 3.5 -11t12.5 4q43 43 99 43q80 0 120.5 -46t27.5 -120zM335 280q7 40 -17 69t-64 29 t-74 -28.5t-42 -69.5l-20 -113q-7 -40 17 -69t64 -29t74.5 29t41.5 69z" />
<glyph unicode="q" horiz-adv-x="471" d="M426 436l-115 -651q-1 -10 -12 -10h-59q-9 0 -8 10l45 252q2 8 -3.5 10.5t-12.5 -3.5q-48 -44 -99 -44q-71 0 -111 47t-27 120l20 113q13 74 69.5 120t137.5 46q54 0 83 -43q5 -7 11 -4.5t8 10.5l5 27q1 10 12 10h48q9 0 8 -10zM319 280q7 40 -16.5 69t-63.5 29 t-74 -28.5t-42 -69.5l-20 -113q-7 -40 17 -69t64 -29t74 29t41 69z" />
<glyph unicode="r" horiz-adv-x="267" d="M295 435l-11 -63q-3 -14 -15 -9q-7 3 -17 3q-43 0 -75.5 -26.5t-39.5 -69.5l-46 -260q-1 -10 -12 -10h-59q-9 0 -8 10l75 426q1 10 12 10h49q9 0 8 -10l-7 -41q-2 -8 3.5 -11t11.5 4q52 58 102 58h22q9 0 7 -11z" />
<glyph unicode="s" horiz-adv-x="433" d="M398 370q3 -9 -7 -14l-52 -24q-8 -4 -13 4q-23 55 -81 55h-30q-41 0 -64 -17t-28 -44q-3 -17 1.5 -29t24.5 -20.5t28.5 -10.5t42.5 -9q5 -1 8 -1.5t7 -1.5l8 -2q65 -14 97 -40.5t22 -81.5q-11 -62 -61 -103t-127 -41h-30q-70 0 -107 34q-21 18 -34 54q-3 9 7 13l52 24 q10 4 13 -4q9 -25 31 -40.5t50 -15.5h30q40 0 65 19.5t31 49.5q2 11 0 19.5t-10 15t-15.5 10.5t-23 8.5t-25 6.5t-29.5 6q-13 3 -20 4q-133 27 -115 126q12 66 62 101t120 35h30q65 0 103 -29q26 -21 39 -57z" />
<glyph unicode="t" horiz-adv-x="267" d="M269 436l-9 -48q-1 -10 -11 -10h-71q-11 0 -12 -10l-37 -211q-6 -35 11.5 -62t54.5 -34q7 -1 6 -10l-9 -50q-2 -12 -13 -10q-72 7 -107 52q-34 45 -22 114l37 211q1 10 -8 10h-56q-10 0 -9 10l5 27l135 120q3 3 8 3h24q9 0 8 -10l-13 -72q-1 -10 9 -10h71q9 0 8 -10z" />
<glyph unicode="u" horiz-adv-x="481" d="M436 436l-75 -426q-1 -10 -12 -10h-48q-9 0 -8 10l5 28q2 8 -4 11t-13 -4q-45 -45 -99 -45q-80 0 -120.5 46.5t-27.5 120.5l48 269q1 10 12 10h59q9 0 8 -10l-48 -269q-7 -40 17 -69t64 -29q41 0 75 28.5t41 69.5l48 269q1 10 12 10h58q9 0 8 -10z" />
<glyph unicode="v" horiz-adv-x="423" d="M437 432l-247 -426q-3 -6 -10 -6h-48q-6 0 -8 6l-98 426q-3 14 12 14h62q6 0 8 -6l62 -286q5 -27 4 -39h4q7 20 18 39l163 286q3 6 10 6h62q14 0 6 -14z" />
<glyph unicode="w" horiz-adv-x="599" d="M608 433l-205 -426q-3 -7 -11 -7h-45q-8 0 -9 7l-32 282l-1 50h-3q-7 -23 -20 -50l-131 -282q-3 -7 -11 -7h-45q-8 0 -9 7l-55 426q-2 13 13 13h64q8 0 8 -7l21 -269l1 -49h3q7 22 20 49l125 269q4 7 12 7h53q8 0 8 -7l30 -260l1 -55h3q9 29 21 56l112 259q4 7 12 7h63 q13 0 7 -13z" />
<glyph unicode="x" horiz-adv-x="404" d="M407 431l-167 -201q-5 -5 -2 -10l97 -205q3 -6 -0.5 -10.5t-10.5 -4.5h-69q-6 0 -8 5l-67 153q-7 14 -17 0l-121 -153q-5 -5 -10 -5h-64q-7 0 -8.5 4.5t3.5 10.5l169 204q4 6 2 12l-97 200q-3 6 0.5 10.5t10.5 4.5h68q4 0 7 -5l67 -153q5 -12 16 0l123 153q3 5 9 5h64 q7 0 8.5 -4.5t-3.5 -10.5z" />
<glyph unicode="y" horiz-adv-x="481" d="M436 436l-87 -493q-14 -79 -68.5 -128.5t-139.5 -49.5q-76 0 -115 41q-17 18 -29 48q-3 10 7 14l57 26q8 4 13 -4q22 -56 79 -56q41 0 75 28.5t41 69.5l18 101q2 8 -4 11t-13 -4q-40 -40 -88 -40q-80 0 -120.5 46.5t-27.5 120.5l48 269q1 10 12 10h59q9 0 8 -10l-48 -269 q-7 -40 17 -69t64 -29q44 0 77 30.5t39 67.5l48 269q1 10 12 10h58q9 0 8 -10z" />
<glyph unicode="z" horiz-adv-x="408" d="M385 430l-270 -346q-12 -15 6 -15h207q11 0 8 -10l-8 -49q-1 -10 -12 -10h-337q-18 0 -6 15l269 347q5 7 3 11t-10 4h-186q-9 0 -8 10l9 48q1 10 11 10h317q8 0 10 -4t-3 -11z" />
<glyph unicode="{" horiz-adv-x="391" d="M405 721l-9 -50q-2 -9 -9 -10q-40 -7 -67 -34t-33 -62l-30 -168q-7 -36 -33.5 -68.5t-60.5 -48.5q-7 -4 -1 -10q29 -15 43.5 -49.5t7.5 -75.5l-29 -161q-6 -35 11.5 -62.5t54.5 -34.5q7 -1 6 -10l-8 -49q-3 -11 -13 -10q-73 7 -107 54q-34 48 -21 122l26 148q6 35 -12 62 t-55 34q-8 2 -6 10l9 53q2 8 10 10q39 7 67 34t34 62l26 148q15 87 80 135q48 35 110 41q5 1 7.5 -2t1.5 -8z" />
<glyph unicode="|" horiz-adv-x="235" d="M145 750v-1000h-53v1000h53z" />
<glyph unicode="}" horiz-adv-x="391" d="M316 301l-9 -53q-2 -8 -10 -10q-39 -7 -66.5 -34t-33.5 -62l-26 -148q-17 -93 -90 -141q-44 -29 -101 -35q-5 -1 -7.5 2t-1.5 8l8 49q2 8 10 10q39 7 67 34.5t34 62.5l29 161q5 31 34 70.5t61 54.5q3 2 3 5.5t-2 4.5q-27 15 -42 50.5t-10 66.5l30 168q6 35 -12.5 62 t-54.5 34q-8 2 -7 10l9 50q2 12 13 10q63 -6 97 -42q47 -49 32 -134l-26 -148q-6 -35 11.5 -62t54.5 -34q8 -2 6 -10z" />
<glyph unicode="~" horiz-adv-x="502" d="M437 259q-48 -77 -113 -77q-49 0 -97 31q-47 30 -80 30q-46 0 -81 -61l-34 37q47 77 115 77q46 0 95 -31q48 -31 80 -31q47 0 81 62z" />
<glyph unicode="&#xa0;" />
<glyph unicode="&#xa1;" horiz-adv-x="275" d="M203 407q-4 -22 -21.5 -37t-39.5 -15t-34.5 14.5t-8.5 37.5q4 21 21.5 36.5t39.5 15.5q21 0 34 -15t9 -37zM141 254l-8 -168l-46 -259q-1 -10 -11 -10h-59q-10 0 -9 10l46 259l51 168q3 9 11 9h16q9 0 9 -9z" />
<glyph unicode="&#xa2;" d="M429 391q3 -9 -8 -14l-57 -27q-9 -4 -12 4q-13 35 -49 50q-8 3 -10 -8l-53 -301q-1 -6 1 -8t7 0q38 14 66 51q7 8 14 4l48 -27q8 -4 2 -13q-20 -29 -44 -47q-42 -34 -100 -41q-9 -1 -10 -11l-12 -63q-1 -10 -11 -10h-25q-10 0 -9 10l11 62q3 12 -9 13q-64 10 -94 55 t-19 109l23 133q11 64 57 108.5t114 54.5q11 1 14 13l11 62q1 10 12 10h25q9 0 8 -10l-11 -63q-1 -10 9 -11q48 -7 77 -33q23 -20 34 -52zM248 396q1 6 -1.5 8t-8.5 1q-32 -10 -53.5 -35t-26.5 -58l-23 -133q-5 -33 7 -58.5t40 -34.5q12 -3 13 8z" />
<glyph unicode="&#xa3;" d="M514 552q4 -8 -7 -14l-58 -26q-9 -4 -12 4q-23 55 -78 55q-42 0 -75 -28.5t-41 -69.5l-19 -109q-1 -10 8 -10h71q10 0 9 -10l-9 -48q-1 -10 -12 -10h-71q-10 0 -11 -10l-21 -119q-6 -29 -40 -73q-11 -15 6 -15h237q11 0 8 -10l-8 -49q-1 -10 -12 -10h-426q-9 0 -8 10 l8 49q3 10 12 10h42q38 6 67 33.5t36 64.5l20 109q1 10 -9 10h-26q-9 0 -8 10l9 48q1 10 11 10h26q11 0 12 10l18 99q14 77 73.5 127t134.5 50q71 0 111 -38q20 -18 32 -50z" />
<glyph unicode="&#xa4;" horiz-adv-x="613" d="M525 174q-26 -28 -40 -41q-44 44 -67 66q-50 -39 -117 -39q-68 0 -117 39q-44 -44 -67 -66q-6 6 -19.5 20t-20.5 21q46 44 68 64q-39 54 -39 116q0 66 39 116q-8 7 -22 20.5t-25 24t-21 20.5q7 7 20.5 21t19.5 20q23 -22 67 -66q52 38 117 38q68 0 116 -38q46 44 68 66 q14 -13 40 -41q-11 -11 -33.5 -32.5t-33.5 -32.5q38 -51 38 -116q0 -63 -38 -116q11 -10 33.5 -31.5t33.5 -32.5zM439 355q0 59 -41.5 98t-95.5 39q-59 0 -99 -40.5t-40 -96.5t40.5 -97t97.5 -41t97.5 40.5t40.5 97.5z" />
<glyph unicode="&#xa5;" d="M517 615l-195 -276q-12 -15 6 -15h128q11 0 8 -10l-7 -44q-3 -10 -12 -10h-153q-11 0 -12 -10l-15 -85q-1 -10 8 -10h153q10 0 9 -10l-8 -43q-1 -10 -12 -10h-153q-9 0 -12 -10l-12 -72q-1 -10 -12 -10h-59q-9 0 -8 10l12 72q3 10 -8 10h-153q-9 0 -8 10l8 43q1 10 11 10 h153q11 0 12 10l15 85q1 10 -8 10h-153q-11 0 -8 10l7 44q3 10 12 10h128q17 0 12 15l-99 276q-5 15 12 15h69q6 0 8 -6l75 -240q1 -5 4 -6.5t7 0t7 6.5l157 240q4 6 10 6h70q18 0 6 -15z" />
<glyph unicode="&#xa6;" horiz-adv-x="235" d="M145 367h-53v365h53v-365zM145 -183h-53v365h53v-365z" />
<glyph unicode="&#xa7;" d="M464 552q4 -8 -7 -14l-58 -26q-8 -4 -11 4q-24 55 -79 55h-17q-41 0 -75 -28.5t-41 -69.5q-5 -29 12.5 -51.5t48 -36t65 -32.5t63 -40.5t43 -61.5t5.5 -94q-10 -56 -50 -99q-3 -3 -1 -11q23 -48 12 -109q-13 -74 -69.5 -120.5t-136.5 -46.5h-43q-67 0 -106 32 q-24 19 -38 56q-3 9 8 14l56 27q8 4 12 -5q23 -56 80 -56h43q40 0 74 29.5t41 69.5q5 29 -7 51t-35 36.5t-52 28t-57 30t-50 37.5t-32 55t-2 78q11 61 50 104q6 6 2 12q-25 44 -14 103q13 74 69.5 120.5t136.5 46.5h17q68 0 106 -33q24 -20 37 -55zM334 157q4 24 -2 42.5 t-24.5 34.5t-34.5 25.5t-48 25.5t-48 25q-8 5 -15 -3q-19 -23 -24 -53q-5 -26 10 -48t34.5 -33.5t58 -31.5t59.5 -33q8 -5 15 5q16 25 19 44z" />
<glyph unicode="&#xa8;" horiz-adv-x="494" d="M418 564q-3 -19 -20 -33.5t-36 -14.5t-30.5 14t-7.5 34q3 19 19 32.5t36 13.5t31.5 -13.5t7.5 -32.5zM259 564q-4 -20 -20.5 -34t-35.5 -14t-30.5 14t-7.5 34q3 19 19 32.5t36 13.5t31 -13.5t8 -32.5z" />
<glyph unicode="&#xa9;" horiz-adv-x="694" d="M632 390l-51 -290q-14 -76 -71 -123t-139 -47h-180q-82 0 -123 47t-27 123l51 290q14 76 71 123t139 47h180q82 0 123 -47t27 -123zM587 390q10 56 -21 90.5t-92 34.5h-180q-61 0 -104 -34.5t-53 -90.5l-51 -290q-10 -56 21 -90.5t92 -34.5h180q61 0 104 34.5t53 90.5z M466 363q5 -9 -5 -14l-32 -15q-9 -4 -13 3q-19 37 -58 37q-34 0 -57.5 -19.5t-29.5 -53.5l-17 -99q-6 -33 11.5 -53.5t49.5 -20.5q39 0 72 39q7 7 14 3l26 -16q9 -5 2 -14q-16 -19 -36 -32q-37 -26 -87 -26q-57 0 -85.5 33t-19.5 87l17 99q9 53 49.5 85.5t98.5 32.5 q49 0 80 -29q12 -10 20 -27z" />
<glyph unicode="&#xaa;" horiz-adv-x="312" d="M335 634q0 -1 -1 -5.5t-2 -10.5t-1 -9l-49 -283q-1 -7 -9 -7h-42q-6 0 -6 6l5 30q0 3 -3.5 4.5t-7.5 -2.5q-37 -38 -76 -38q-52 0 -80.5 25t-28.5 70q0 2 3 26l14 81q9 54 48.5 86.5t97.5 32.5q42 0 67 -37q8 -11 12 4l4 26q2 7 9 7h40q6 0 6 -6zM248 532q1 23 -14 37.5 t-40 14.5q-27 0 -48.5 -17.5t-25.5 -43.5l-15 -83q0 -2 -1 -6t-1 -6q-1 -23 14 -38.5t40 -15.5q26 0 49 18.5t27 43.5l14 84q1 3 1 12z" />
<glyph unicode="&#xab;" horiz-adv-x="550" d="M508 445l-8 -50q-2 -5 -6 -8l-157 -100q-13 -8 -3 -16l122 -101q3 -3 3 -8l-9 -50q-1 -8 -6.5 -10.5t-11.5 2.5l-169 138q-3 3 -3 8l10 57q2 5 6 8l218 138q8 5 11.5 2.5t2.5 -10.5zM288 445l-8 -50q-2 -5 -6 -8l-157 -100q-13 -8 -3 -16l122 -101q3 -3 3 -8l-9 -50 q-1 -8 -6.5 -10.5t-11.5 2.5l-168 138q-3 3 -3 8l10 57q2 5 6 8l217 138q8 5 11.5 2.5t2.5 -10.5z" />
<glyph unicode="&#xac;" d="M481 347l-38 -217q-1 -10 -12 -10h-41q-9 0 -8 10l29 164q1 10 -8 10h-340q-10 0 -9 10l6 33q1 10 12 10h401q9 0 8 -10z" />
<glyph unicode="&#xad;" horiz-adv-x="255" d="M205 253l-11 -59q-1 -10 -12 -10h-151q-9 0 -8 10l11 59q1 10 11 10h151q10 0 9 -10z" />
<glyph unicode="&#xae;" horiz-adv-x="414" d="M419 460l-3 -20q-11 -75 -69.5 -122.5t-140.5 -47.5h-4q-81 0 -121 47t-29 123l3 20q11 75 69.5 122.5t140.5 47.5h4q81 0 121 -47t29 -123zM389 460q9 63 -24.5 101.5t-100.5 38.5h-4q-68 0 -117 -39t-58 -101l-3 -20q-9 -63 24.5 -101.5t100.5 -38.5h4q68 0 117 39 t58 101zM316 485l-1 -4q-7 -27 -34 -45q-8 -5 -5 -12l16 -50q2 -6 -1.5 -10t-10.5 -4h-16q-6 0 -7 6l-14 53q-1 6 -8 6h-25q-11 0 -12 -10l-8 -45q-1 -10 -12 -10h-11q-9 0 -8 10l30 168q1 10 12 10h63q28 0 42.5 -17t9.5 -46zM284 485v3q2 14 -5 23t-20 9h-32 q-11 0 -12 -10l-8 -47q-3 -10 8 -10h32q13 0 23.5 9t13.5 23z" />
<glyph unicode="&#xaf;" horiz-adv-x="494" d="M407 596l-8 -48q-3 -10 -12 -10h-202q-11 0 -8 10l8 48q1 10 12 10h202q9 0 8 -10z" />
<glyph unicode="&#xb0;" horiz-adv-x="267" d="M265 545l-18 -100q-7 -38 -35.5 -61.5t-69.5 -23.5t-61.5 23.5t-13.5 61.5l18 100q7 38 35.5 61.5t69.5 23.5t61.5 -23.5t13.5 -61.5zM213 545q3 15 -6.5 26.5t-24.5 11.5t-28 -11.5t-16 -26.5l-18 -100q-3 -15 6 -26t25 -11q15 0 28 11t16 26z" />
<glyph unicode="&#xb1;" d="M475 333l-6 -33q-1 -10 -12 -10h-164q-9 0 -12 -10l-29 -164q-1 -10 -11 -10h-33q-10 0 -9 10l29 164q3 10 -8 10h-164q-9 0 -8 10l6 33q1 10 12 10h164q10 0 11 10l29 164q1 10 12 10h33q9 0 8 -10l-29 -164q-1 -10 9 -10h164q9 0 8 -10zM424 43l-6 -33q-1 -10 -12 -10 h-401q-9 0 -8 10l6 33q1 10 11 10h401q10 0 9 -10z" />
<glyph unicode="&#xb2;" horiz-adv-x="302" d="M302 469q-3 -17 -11.5 -31t-15.5 -22t-24.5 -17t-23.5 -11.5t-29.5 -9.5t-25.5 -8q-28 -10 -38.5 -14t-23.5 -14.5t-15 -24.5l-1 -7q-1 -3 0.5 -4t5.5 -1h163q6 0 5 -5l-8 -43q-1 -6 -7 -6h-228q-6 0 -5 6l8 42q4 23 14 41.5t20.5 29.5t28 20.5t29.5 14t32 11.5 q5 2 15.5 5t15 4.5t12.5 4t12 4.5l10 5t8.5 6t6 7t5.5 8.5t3 10.5q4 22 -8.5 36.5t-39.5 14.5h-26q-31 0 -62 -36q-5 -7 -9 -3l-40 20q-5 3 -2 9q26 33 48 45q31 19 75 19h26q55 0 81.5 -29.5t18.5 -77.5z" />
<glyph unicode="&#xb3;" horiz-adv-x="302" d="M303 518l-2 -11q-5 -26 -24 -46.5t-40 -27.5q-3 -1 0 -4q16 -9 28 -31t8 -50l-3 -20q-8 -54 -47 -85.5t-95 -31.5h-20q-47 0 -72 22q-18 15 -27 41q-2 8 4 11l48 20q5 3 7 -3q17 -37 52 -37h18q24 0 43.5 17t24.5 41l4 23q4 23 -9.5 39.5t-38.5 16.5h-53q-6 0 -5 7l7 41 q1 6 7 6h53q26 0 46.5 17t22.5 41l1 10q2 25 -11 41t-37 16h-18q-35 0 -64 -36q-5 -7 -9 -3l-40 21q-5 4 0 9q21 31 47 46q30 18 74 18h20q55 0 82.5 -32.5t17.5 -85.5z" />
<glyph unicode="&#xb4;" horiz-adv-x="494" d="M435 617l-136 -110q-7 -6 -17 -6h-27q-8 0 -9.5 4.5t3.5 10.5l92 110q6 8 14 8h76q8 0 9.5 -5.5t-5.5 -11.5z" />
<glyph unicode="&#xb5;" horiz-adv-x="492" d="M442 436l-75 -426q-1 -10 -12 -10h-48q-9 0 -8 10l5 28q2 8 -4 11t-13 -4q-45 -45 -99 -45q-45 0 -83 18q-11 5 -13 -7l-28 -161q-1 -10 -12 -10h-59q-9 0 -8 10l103 586q1 10 12 10h59q9 0 8 -10l-48 -269q-7 -40 17 -69t64 -29q41 0 75 28.5t41 69.5l48 269q1 10 12 10 h58q9 0 8 -10z" />
<glyph unicode="&#xb6;" horiz-adv-x="612" d="M590 620l-147 -835q-1 -10 -12 -10h-59q-9 0 -8 10l135 766q1 10 -8 10h-85q-11 0 -12 -10l-135 -766q-1 -10 -12 -10h-59q-9 0 -8 10l52 297q3 10 -8 10h-27q-80 0 -120 47t-27 120l34 194q14 80 70.5 128.5t137.5 48.5h290q11 0 8 -10z" />
<glyph unicode="&#xb7;" d="M304 238q-4 -22 -22 -37t-40 -15q-21 0 -33.5 15t-8.5 37q4 21 21.5 36.5t38.5 15.5q22 0 35 -15t9 -37z" />
<glyph unicode="&#xb8;" horiz-adv-x="494" d="M246 4l-36 -54q-5 -9 2 -13q41 -23 31 -69l-2 -9q-9 -39 -40.5 -63.5t-71.5 -24.5h-42q-10 0 -9 10l5 28q3 10 12 10h42q17 0 30 11.5t17 28.5l2 9q6 30 -33 39l-14 3q-10 2 -3 12l62 96q4 8 12 6l31 -6q11 -3 5 -14z" />
<glyph unicode="&#xb9;" horiz-adv-x="302" d="M268 299l-8 -42q0 -6 -7 -6h-210q-5 0 -5 6l8 42q0 6 7 6h67q7 0 8 7l26 148q1 5 -2 6.5t-7 -2.5l-40 -32q-5 -4 -9 0l-25 28q-2 6 2 9l126 105l3 1q3 1 4 1h25q5 0 4 -7l-45 -257q-1 -7 7 -7h66q5 0 5 -6z" />
<glyph unicode="&#xba;" horiz-adv-x="315" d="M323 520l-16 -93q-9 -54 -51.5 -87.5t-101.5 -33.5t-88 33t-20 88l16 93q9 54 50.5 87t100.5 33t89 -33t21 -87zM258 520q5 29 -11 47t-44 18q-29 0 -50 -17.5t-27 -47.5l-17 -93q-5 -29 10.5 -48t43.5 -19t51 19t28 48z" />
<glyph unicode="&#xbb;" horiz-adv-x="550" d="M495 307l-10 -57q0 -3 -5 -8l-218 -138q-8 -5 -11.5 -2.5t-2.5 10.5l9 50q0 5 5 8l158 101q13 8 3 16l-123 100q-4 3 -2 8l8 50q1 8 6.5 10.5t11.5 -2.5l169 -138q3 -3 2 -8zM276 307l-10 -57q0 -3 -5 -8l-219 -138q-8 -5 -11.5 -2.5t-2.5 10.5l9 50q0 5 5 8l158 101 q13 8 3 16l-123 100q-4 3 -2 8l8 50q1 8 6.5 10.5t11.5 -2.5l170 -138q4 -3 2 -8z" />
<glyph unicode="&#xbc;" horiz-adv-x="810" d="M615 616l-369 -610q-3 -6 -10 -6h-24q-15 0 -7 14l369 610q4 6 10 6h24q15 0 7 -14zM692 54l-8 -42q-2 -6 -7 -6h-47q-6 0 -7 -7l-15 -84q-1 -6 -8 -6h-50q-6 0 -5 6l15 84q2 7 -6 7h-166q-8 0 -6 6l8 47l224 256q2 2 7 2h51q7 0 6 -6l-43 -244q-1 -7 5 -7h47q5 0 5 -6z M274 299l-8 -42q0 -6 -7 -6h-209q-6 0 -6 6l8 42q0 6 8 6h66q8 0 9 7l26 148q1 5 -2 6.5t-7 -2.5l-41 -32q-5 -4 -9 0l-24 28q-3 5 2 9l126 105l3 1q3 1 4 1h25q5 0 4 -7l-45 -257q-1 -7 6 -7h66q5 0 5 -6zM600 225q0 3 -3.5 4t-5.5 -1l-133 -161q-8 -10 3 -10h102q7 0 8 6z " />
<glyph unicode="&#xbd;" horiz-adv-x="810" d="M715 218q-3 -17 -11.5 -31t-15 -22t-24 -17t-23.5 -11.5t-29 -9.5t-25 -8q-27 -9 -39 -14t-24.5 -15t-14.5 -24l-2 -7q0 -5 7 -5h163q5 0 5 -5l-8 -43q-1 -6 -7 -6h-228q-6 0 -5 6l7 42q5 28 16.5 49t32.5 34t35.5 19t40.5 15q5 2 15.5 5t15 4.5t12.5 4t12 4.5l10 5 t8.5 6t6 7t5.5 8.5t3 10.5q4 22 -8.5 36.5t-39.5 14.5h-25q-33 0 -64 -36q-3 -8 -8 -3l-40 20q-5 3 -2 9q22 30 49 46q32 18 73 18h26q55 0 81.5 -29.5t18.5 -77.5zM615 616l-369 -610q-3 -6 -10 -6h-24q-15 0 -7 14l369 610q4 6 10 6h24q15 0 7 -14zM274 299l-8 -42 q0 -6 -7 -6h-209q-6 0 -6 6l8 42q0 6 8 6h66q8 0 9 7l26 148q1 5 -2 6.5t-7 -2.5l-41 -32q-5 -4 -9 0l-24 28q-3 5 2 9l126 105l3 1q3 1 4 1h25q5 0 4 -7l-45 -257q-1 -7 6 -7h66q5 0 5 -6z" />
<glyph unicode="&#xbe;" horiz-adv-x="810" d="M615 616l-369 -610q-3 -6 -10 -6h-24q-15 0 -7 14l369 610q4 6 10 6h24q15 0 7 -14zM692 54l-8 -42q-2 -6 -7 -6h-47q-6 0 -7 -7l-15 -84q-1 -6 -8 -6h-50q-6 0 -5 6l15 84q2 7 -6 7h-166q-8 0 -6 6l8 47l224 256q2 2 7 2h51q7 0 6 -6l-43 -244q-1 -7 5 -7h47q5 0 5 -6z M336 518l-2 -11q-5 -26 -24 -46.5t-40 -27.5q-4 -2 0 -4q16 -9 28 -31t8 -50l-3 -20q-8 -54 -47.5 -85.5t-95.5 -31.5h-19q-48 0 -73 22q-16 15 -26 41q-2 8 4 11l47 20q6 3 8 -3q17 -37 51 -37h18q25 0 44.5 17t24.5 41l4 23q4 24 -10 40t-39 16h-52q-7 0 -6 7l7 41 q1 6 8 6h52q26 0 47 17t23 41l1 10q2 24 -11.5 40.5t-37.5 16.5h-18q-35 0 -63 -36q-5 -7 -9 -3l-40 21q-5 4 0 9q21 30 45 45q32 19 76 19h19q55 0 83 -32.5t18 -85.5zM600 225q0 3 -3.5 4t-5.5 -1l-133 -161q-8 -10 3 -10h102q7 0 8 6z" />
<glyph unicode="&#xbf;" horiz-adv-x="496" d="M351 407q-4 -22 -21.5 -37t-39.5 -15t-34.5 15t-8.5 37t21.5 37t39.5 15q21 0 34 -15t9 -37zM364 -105q-20 -28 -43 -47q-52 -42 -131 -42h-39q-80 0 -120.5 46.5t-27.5 121.5q7 39 21.5 67t41 47.5t39 26t46.5 21.5q28 12 43.5 21.5t31 27.5t19.5 42q2 12 2 25 q2 11 12 11h58q9 0 9 -9q-4 -34 -5 -42q-2 -14 -6 -26.5t-11.5 -23.5t-12.5 -19t-17 -16.5t-16.5 -13t-19.5 -12t-18.5 -9.5t-21 -9.5t-18.5 -8.5q-43 -20 -67 -41.5t-31 -58.5q-7 -41 16.5 -70t64.5 -29h39q56 0 99 57q7 8 14 4l47 -27q9 -5 2 -14z" />
<glyph unicode="&#xc0;" horiz-adv-x="441" d="M331 698q3 -4 0.5 -7.5t-7.5 -3.5h-38q-8 0 -13 5l-106 93q-4 4 -1.5 8t7.5 4h93q8 0 11 -6zM385 13q2 -13 -12 -13h-63q-8 0 -9 7l-14 135q0 6 -9 6h-180q-9 0 -11 -6l-62 -135q-3 -7 -11 -7h-58q-14 0 -8 13l294 610q3 7 11 7h46q8 0 9 -7zM277 230l-18 222l-2 72h-3 q-11 -35 -27 -72l-99 -222q-7 -13 7 -13h129q15 0 13 13z" />
<glyph unicode="&#xc1;" horiz-adv-x="441" d="M442 785l-138 -93q-8 -5 -15 -5h-38q-12 0 -3 11l86 93q6 6 15 6h93q3 0 4.5 -2t0.5 -5t-5 -5zM385 13q2 -13 -12 -13h-63q-8 0 -9 7l-14 135q0 6 -9 6h-180q-9 0 -11 -6l-62 -135q-3 -7 -11 -7h-58q-14 0 -8 13l294 610q3 7 11 7h46q8 0 9 -7zM277 230l-18 222l-2 72h-3 q-11 -35 -27 -72l-99 -222q-7 -13 7 -13h129q15 0 13 13z" />
<glyph unicode="&#xc2;" horiz-adv-x="441" d="M394 695q5 -10 -8 -10h-48q-5 0 -8 5l-26 56q-2 4 -6 4t-7 -4l-46 -56q-3 -5 -11 -5h-48q-11 0 -3 10l91 101q5 5 10 5h46q6 0 9 -5zM385 13q2 -13 -12 -13h-63q-8 0 -9 7l-14 135q0 6 -9 6h-180q-9 0 -11 -6l-62 -135q-3 -7 -11 -7h-58q-14 0 -8 13l294 610q3 7 11 7h46 q8 0 9 -7zM277 230l-18 222l-2 72h-3q-11 -35 -27 -72l-99 -222q-7 -13 7 -13h129q15 0 13 13z" />
<glyph unicode="&#xc3;" horiz-adv-x="441" d="M426 752q-48 -59 -93 -59q-20 0 -47 18t-42 18q-24 0 -51 -27q-8 -7 -13 -2l-17 18q-4 4 1 11q46 56 89 56q22 0 48.5 -16.5t41.5 -16.5q23 0 50 26q10 9 17 2l15 -14q7 -7 1 -14zM385 13q2 -13 -12 -13h-63q-8 0 -9 7l-14 135q0 6 -9 6h-180q-9 0 -11 -6l-62 -135 q-3 -7 -11 -7h-58q-14 0 -8 13l294 610q3 7 11 7h46q8 0 9 -7zM277 230l-18 222l-2 72h-3q-11 -35 -27 -72l-99 -222q-7 -13 7 -13h129q15 0 13 13z" />
<glyph unicode="&#xc4;" horiz-adv-x="441" d="M415 741q-3 -18 -18.5 -32t-34.5 -14t-29.5 13.5t-6.5 32.5q3 18 18 31.5t34 13.5t29.5 -13t7.5 -32zM265 741q-3 -18 -19 -32t-35 -14t-29 13.5t-6 32.5q3 19 17.5 32t33.5 13t30 -13t8 -32zM385 13q2 -13 -12 -13h-63q-8 0 -9 7l-14 135q0 6 -9 6h-180q-9 0 -11 -6 l-62 -135q-3 -7 -11 -7h-58q-14 0 -8 13l294 610q3 7 11 7h46q8 0 9 -7zM277 230l-18 222l-2 72h-3q-11 -35 -27 -72l-99 -222q-7 -13 7 -13h129q15 0 13 13z" />
<glyph unicode="&#xc5;" horiz-adv-x="441" d="M385 13q2 -13 -12 -13h-63q-8 0 -9 7l-14 135q0 6 -9 6h-180q-9 0 -11 -6l-62 -135q-3 -7 -11 -7h-58q-14 0 -8 13l278 576q4 9 -3 13q-34 23 -25 69l6 30q8 36 34 58t65 22t59 -22t13 -58l-6 -30q-9 -47 -50 -69q-8 -5 -7 -12zM337 701q4 19 -8 32t-32 13t-35.5 -12.5 t-19.5 -32.5l-6 -30q-4 -19 7.5 -32.5t31.5 -13.5t36 13t20 33zM277 230l-18 222l-2 72h-3q-11 -35 -27 -72l-99 -222q-7 -13 7 -13h129q15 0 13 13z" />
<glyph unicode="&#xc6;" horiz-adv-x="686" d="M707 620l-8 -49q-3 -10 -12 -10h-256q-11 0 -12 -10l-33 -187q-1 -10 8 -10h210q10 0 9 -10l-9 -49q-1 -10 -12 -10h-210q-9 0 -12 -10l-34 -196q-1 -10 8 -10h256q11 0 8 -10l-8 -49q-1 -10 -12 -10h-334q-9 0 -8 10l24 128q1 10 -9 10h-179q-7 0 -11 -4l-101 -139 q-3 -5 -10 -5h-60q-18 0 -6 15l467 610q5 5 10 5h328q11 0 8 -10zM334 495h-3q-11 -21 -36 -55l-156 -208q-12 -15 6 -15h127q11 0 12 10l27 153z" />
<glyph unicode="&#xc7;" horiz-adv-x="461" d="M470 552q4 -8 -7 -14l-58 -26q-8 -4 -11 4q-24 55 -79 55h-31q-41 0 -75 -28.5t-41 -69.5l-55 -316q-7 -41 16.5 -69.5t63.5 -28.5h31q57 0 99 57q8 8 14 4l48 -27q8 -4 2 -13q-24 -34 -53 -54q-48 -35 -116 -36q-11 0 -16 -8l-21 -32q-5 -9 2 -13q41 -23 31 -69l-2 -9 q-9 -39 -40.5 -63.5t-71.5 -24.5h-42q-10 0 -9 10l5 28q3 10 12 10h42q17 0 30 11.5t17 28.5l2 9q6 30 -33 39l-14 3q-10 2 -3 12l39 59q5 11 -3 12q-62 11 -91 55t-18 109l55 316q13 75 69.5 121t137.5 46h31q69 0 108 -34q21 -18 35 -54z" />
<glyph unicode="&#xc8;" horiz-adv-x="444" d="M351 698q3 -4 0.5 -7.5t-7.5 -3.5h-38q-8 0 -13 5l-106 93q-4 4 -1.5 8t7.5 4h93q8 0 11 -6zM460 552q3 -9 -6 -14l-58 -27q-8 -4 -12 5q-21 55 -79 55h-30q-41 0 -76.5 -28.5t-40.5 -69.5l-2 -15q-5 -42 18 -70.5t63 -28.5h75q10 0 9 -10l-9 -48q-1 -10 -12 -10h-75 q-40 0 -74.5 -29t-41.5 -69l-6 -36q-7 -40 17 -69t64 -29h30q60 0 99 56q7 9 14 5l47 -27q9 -4 3 -13q-21 -32 -56 -57q-49 -33 -119 -33h-30q-82 0 -122.5 47.5t-24.5 127.5l6 31q8 38 39 74t61 50q8 6 2 10q-28 14 -46.5 47.5t-11.5 70.5l3 15q16 81 72 129t137 48h30 q72 0 110 -35q22 -20 33 -53z" />
<glyph unicode="&#xc9;" horiz-adv-x="444" d="M462 785l-138 -93q-8 -5 -15 -5h-38q-12 0 -3 11l86 93q6 6 15 6h93q3 0 4.5 -2t0.5 -5t-5 -5zM460 552q3 -9 -6 -14l-58 -27q-8 -4 -12 5q-21 55 -79 55h-30q-41 0 -76.5 -28.5t-40.5 -69.5l-2 -15q-5 -42 18 -70.5t63 -28.5h75q10 0 9 -10l-9 -48q-1 -10 -12 -10h-75 q-40 0 -74.5 -29t-41.5 -69l-6 -36q-7 -40 17 -69t64 -29h30q60 0 99 56q7 9 14 5l47 -27q9 -4 3 -13q-21 -32 -56 -57q-49 -33 -119 -33h-30q-82 0 -122.5 47.5t-24.5 127.5l6 31q8 38 39 74t61 50q8 6 2 10q-28 14 -46.5 47.5t-11.5 70.5l3 15q16 81 72 129t137 48h30 q72 0 110 -35q22 -20 33 -53z" />
<glyph unicode="&#xca;" horiz-adv-x="444" d="M414 695q5 -10 -8 -10h-48q-5 0 -8 5l-26 56q-2 4 -6 4t-7 -4l-46 -56q-3 -5 -11 -5h-48q-11 0 -3 10l91 101q5 5 10 5h46q6 0 9 -5zM460 552q3 -9 -6 -14l-58 -27q-8 -4 -12 5q-21 55 -79 55h-30q-41 0 -76.5 -28.5t-40.5 -69.5l-2 -15q-5 -42 18 -70.5t63 -28.5h75 q10 0 9 -10l-9 -48q-1 -10 -12 -10h-75q-40 0 -74.5 -29t-41.5 -69l-6 -36q-7 -40 17 -69t64 -29h30q60 0 99 56q7 9 14 5l47 -27q9 -4 3 -13q-21 -33 -51 -54q-51 -36 -124 -36h-30q-82 0 -122.5 47.5t-24.5 127.5l6 31q8 38 39 74t61 50q8 6 2 10q-28 14 -46.5 47.5 t-11.5 70.5l3 15q16 81 72 129t137 48h30q72 0 110 -35q22 -20 33 -53z" />
<glyph unicode="&#xcb;" horiz-adv-x="444" d="M435 741q-3 -18 -18.5 -32t-34.5 -14t-29.5 13.5t-6.5 32.5q3 18 18 31.5t34 13.5t29.5 -13t7.5 -32zM285 741q-3 -18 -19 -32t-35 -14t-29 13.5t-6 32.5q3 19 17.5 32t33.5 13t30 -13t8 -32zM460 552q3 -9 -6 -14l-58 -27q-8 -4 -12 5q-21 55 -79 55h-30 q-41 0 -76.5 -28.5t-40.5 -69.5l-2 -15q-5 -42 18 -70.5t63 -28.5h75q10 0 9 -10l-9 -48q-1 -10 -12 -10h-75q-40 0 -74.5 -29t-41.5 -69l-6 -36q-7 -40 17 -69t64 -29h30q60 0 99 56q7 9 14 5l47 -27q9 -4 3 -13q-21 -33 -51 -54q-51 -36 -124 -36h-30q-82 0 -122.5 47.5 t-24.5 127.5l6 31q8 38 39 74t61 50q8 6 2 10q-28 14 -46.5 47.5t-11.5 70.5l3 15q16 81 72 129t137 48h30q72 0 110 -35q22 -20 33 -53z" />
<glyph unicode="&#xcc;" horiz-adv-x="232" d="M225 698q3 -4 0.5 -7.5t-7.5 -3.5h-38q-8 0 -13 5l-106 93q-4 4 -1.5 8t7.5 4h93q8 0 11 -6zM208 620l-107 -610q-1 -10 -12 -10h-58q-9 0 -8 10l107 610q3 10 12 10h58q11 0 8 -10z" />
<glyph unicode="&#xcd;" horiz-adv-x="232" d="M336 785l-138 -93q-8 -5 -15 -5h-38q-12 0 -3 11l86 93q6 6 15 6h93q3 0 4.5 -2t0.5 -5t-5 -5zM208 620l-107 -610q-1 -10 -12 -10h-58q-9 0 -8 10l107 610q3 10 12 10h58q11 0 8 -10z" />
<glyph unicode="&#xce;" horiz-adv-x="232" d="M288 695q5 -10 -8 -10h-48q-5 0 -8 5l-26 56q-2 4 -6 4t-7 -4l-46 -56q-3 -5 -11 -5h-48q-11 0 -3 10l91 101q5 5 10 5h46q6 0 9 -5zM208 620l-107 -610q-1 -10 -12 -10h-58q-9 0 -8 10l107 610q3 10 12 10h58q11 0 8 -10z" />
<glyph unicode="&#xcf;" horiz-adv-x="232" d="M309 741q-3 -18 -18.5 -32t-34.5 -14t-29.5 13.5t-6.5 32.5q3 18 18 31.5t34 13.5t29.5 -13t7.5 -32zM159 741q-3 -18 -19 -32t-35 -14t-29 13.5t-6 32.5q3 19 17.5 32t33.5 13t30 -13t8 -32zM208 620l-107 -610q-1 -10 -12 -10h-58q-9 0 -8 10l107 610q3 10 12 10h58 q11 0 8 -10z" />
<glyph unicode="&#xd0;" horiz-adv-x="523" d="M485 453l-49 -275q-14 -82 -71 -130t-138 -48h-197q-9 0 -8 10l46 261q2 9 -7 9h-42q-9 0 -8 10l9 48q1 10 11 10h42q9 0 10 8l46 264q3 10 12 10h197q81 0 121 -48t26 -129zM408 463q7 40 -17.5 69t-64.5 29h-118q-11 0 -12 -10l-34 -194q-2 -9 6 -9h73q10 0 9 -10 l-9 -48q-1 -10 -12 -10h-73q-7 0 -9 -8l-34 -193q-1 -10 8 -10h118q41 0 74.5 28.5t41.5 69.5z" />
<glyph unicode="&#xd1;" horiz-adv-x="554" d="M479 752q-48 -59 -93 -59q-20 0 -47 18t-42 18q-24 0 -51 -27q-8 -7 -13 -2l-17 18q-4 4 1 11q46 56 89 56q22 0 48.5 -16.5t41.5 -16.5q23 0 50 26q10 9 17 2l15 -14q7 -7 1 -14zM530 620l-107 -610q-1 -10 -12 -10h-56q-6 0 -8 5l-155 414q-7 16 -11 47h-3 q-6 -55 -40 -244l-37 -212q-1 -10 -12 -10h-58q-9 0 -8 10l107 610q3 10 12 10h55q6 0 8 -5l155 -417q6 -19 10 -43h3q12 82 40 240l38 215q3 10 12 10h59q11 0 8 -10z" />
<glyph unicode="&#xd2;" horiz-adv-x="509" d="M363 698q3 -4 0.5 -7.5t-7.5 -3.5h-38q-8 0 -13 5l-106 93q-4 4 -1.5 8t7.5 4h93q8 0 11 -6zM474 473l-55 -316q-13 -75 -69.5 -121t-137.5 -46h-31q-80 0 -120 46t-27 121l55 316q13 75 69.5 121t137.5 46h31q80 0 120 -46t27 -121zM395 473q7 41 -16.5 69.5t-63.5 28.5 h-31q-41 0 -75 -28.5t-41 -69.5l-55 -316q-7 -41 16.5 -69.5t63.5 -28.5h31q41 0 75 29t41 69z" />
<glyph unicode="&#xd3;" horiz-adv-x="509" d="M474 785l-138 -93q-8 -5 -15 -5h-38q-12 0 -3 11l86 93q6 6 15 6h93q3 0 4.5 -2t0.5 -5t-5 -5zM474 473l-55 -316q-13 -75 -69.5 -121t-137.5 -46h-31q-80 0 -120 46t-27 121l55 316q13 75 69.5 121t137.5 46h31q80 0 120 -46t27 -121zM395 473q7 41 -16.5 69.5 t-63.5 28.5h-31q-41 0 -75 -28.5t-41 -69.5l-55 -316q-7 -41 16.5 -69.5t63.5 -28.5h31q41 0 75 29t41 69z" />
<glyph unicode="&#xd4;" horiz-adv-x="509" d="M426 695q5 -10 -8 -10h-48q-5 0 -8 5l-26 56q-2 4 -6 4t-7 -4l-46 -56q-3 -5 -11 -5h-48q-11 0 -3 10l91 101q5 5 10 5h46q6 0 9 -5zM474 473l-55 -316q-13 -75 -69.5 -121t-137.5 -46h-31q-80 0 -120 46t-27 121l55 316q13 75 69.5 121t137.5 46h31q80 0 120 -46 t27 -121zM395 473q7 41 -16.5 69.5t-63.5 28.5h-31q-41 0 -75 -28.5t-41 -69.5l-55 -316q-7 -41 16.5 -69.5t63.5 -28.5h31q41 0 75 29t41 69z" />
<glyph unicode="&#xd5;" horiz-adv-x="509" d="M458 752q-48 -59 -93 -59q-20 0 -47 18t-42 18q-24 0 -51 -27q-8 -7 -13 -2l-17 18q-4 4 1 11q46 56 89 56q22 0 48.5 -16.5t41.5 -16.5q23 0 50 26q10 9 17 2l15 -14q7 -7 1 -14zM474 473l-55 -316q-13 -75 -69.5 -121t-137.5 -46h-31q-80 0 -120 46t-27 121l55 316 q13 75 69.5 121t137.5 46h31q80 0 120 -46t27 -121zM395 473q7 41 -16.5 69.5t-63.5 28.5h-31q-41 0 -75 -28.5t-41 -69.5l-55 -316q-7 -41 16.5 -69.5t63.5 -28.5h31q41 0 75 29t41 69z" />
<glyph unicode="&#xd6;" horiz-adv-x="509" d="M447 741q-3 -18 -18.5 -32t-34.5 -14t-29.5 13.5t-6.5 32.5q3 18 18 31.5t34 13.5t29.5 -13t7.5 -32zM297 741q-3 -18 -19 -32t-35 -14t-29 13.5t-6 32.5q3 19 17.5 32t33.5 13t30 -13t8 -32zM474 473l-55 -316q-13 -75 -69.5 -121t-137.5 -46h-31q-80 0 -120 46t-27 121 l55 316q13 75 69.5 121t137.5 46h31q80 0 120 -46t27 -121zM395 473q7 41 -16.5 69.5t-63.5 28.5h-31q-41 0 -75 -28.5t-41 -69.5l-55 -316q-7 -41 16.5 -69.5t63.5 -28.5h31q41 0 75 29t41 69z" />
<glyph unicode="&#xd7;" d="M453 390q6 -7 -2 -14l-156 -133q-9 -7 -3 -15l107 -130q7 -7 -2 -14l-21 -17q-9 -7 -15 0l-107 130q-6 7 -14 0l-156 -133q-8 -7 -14 0l-19 23q-6 7 2 14l156 133q9 8 3 15l-107 130q-7 7 2 14l21 18q9 7 15 0l107 -130q6 -7 14 0l156 132q8 7 14 0z" />
<glyph unicode="&#xd8;" horiz-adv-x="509" d="M474 473l-55 -316q-13 -75 -69.5 -121t-137.5 -46h-31q-80 0 -120 46t-27 121l55 316q13 75 69.5 121t137.5 46h31q80 0 120 -46t27 -121zM369 542q3 8 -1 12q-20 17 -53 17h-31q-41 0 -75 -28.5t-41 -69.5l-55 -317q-1 -5 -1 -12q2 -6 7.5 -5t8.5 7zM397 492q0 4 -2 5 t-4.5 0t-4.5 -4l-245 -405q-5 -8 0 -12q21 -17 52 -17h31q41 0 75 29t41 69l55 315q2 10 2 20z" />
<glyph unicode="&#xd9;" horiz-adv-x="529" d="M374 698q3 -4 0.5 -7.5t-7.5 -3.5h-38q-8 0 -13 5l-106 93q-4 4 -1.5 8t7.5 4h93q8 0 11 -6zM510 620l-81 -463q-13 -74 -70 -120.5t-137 -46.5h-31q-80 0 -120 46.5t-27 120.5l81 463q3 10 12 10h59q11 0 8 -10l-81 -463q-7 -41 16.5 -69.5t63.5 -28.5h31q41 0 75 29 t41 69l81 463q3 10 12 10h59q11 0 8 -10z" />
<glyph unicode="&#xda;" horiz-adv-x="529" d="M485 785l-138 -93q-7 -5 -15 -5h-38q-12 0 -3 11l86 93q6 6 15 6h93q3 0 4.5 -2t0.5 -5t-5 -5zM510 620l-81 -463q-13 -74 -70 -120.5t-137 -46.5h-31q-80 0 -120 46.5t-27 120.5l81 463q3 10 12 10h59q11 0 8 -10l-81 -463q-7 -41 16.5 -69.5t63.5 -28.5h31q41 0 75 29 t41 69l81 463q3 10 12 10h59q11 0 8 -10z" />
<glyph unicode="&#xdb;" horiz-adv-x="529" d="M437 695q5 -10 -8 -10h-48q-5 0 -8 5l-26 56q-1 4 -5.5 4t-7.5 -4l-46 -56q-3 -5 -11 -5h-48q-11 0 -3 10l91 101q5 5 10 5h46q6 0 9 -5zM510 620l-81 -463q-13 -74 -70 -120.5t-137 -46.5h-31q-80 0 -120 46.5t-27 120.5l81 463q3 10 12 10h59q11 0 8 -10l-81 -463 q-7 -41 16.5 -69.5t63.5 -28.5h31q41 0 75 29t41 69l81 463q3 10 12 10h59q11 0 8 -10z" />
<glyph unicode="&#xdc;" horiz-adv-x="529" d="M458 741q-3 -18 -18.5 -32t-34.5 -14t-29.5 13.5t-6.5 32.5q3 18 18 31.5t34 13.5t29.5 -13t7.5 -32zM308 741q-3 -18 -19 -32t-35 -14t-29 13.5t-6 32.5q3 19 17.5 32t33.5 13t30 -13t8 -32zM510 620l-81 -463q-13 -74 -70 -120.5t-137 -46.5h-31q-80 0 -120 46.5 t-27 120.5l81 463q3 10 12 10h59q11 0 8 -10l-81 -463q-7 -41 16.5 -69.5t63.5 -28.5h31q41 0 75 29t41 69l81 463q3 10 12 10h59q11 0 8 -10z" />
<glyph unicode="&#xdd;" horiz-adv-x="411" d="M426 785l-138 -93q-8 -5 -15 -5h-38q-12 0 -3 11l86 93q6 6 15 6h93q3 0 4.5 -2t0.5 -5t-5 -5zM470 615l-230 -325l-49 -280q-1 -10 -12 -10h-59q-9 0 -8 10l49 280l-116 325q-5 15 12 15h70q6 0 8 -6l74 -240q1 -5 4 -6.5t7 0t7 6.5l158 240q4 6 10 6h69q18 0 6 -15z " />
<glyph unicode="&#xde;" horiz-adv-x="468" d="M464 333q-13 -73 -70 -120.5t-137 -47.5h-119q-9 0 -12 -10l-25 -145q-1 -10 -12 -10h-58q-9 0 -8 10l107 610q3 10 12 10h58q11 0 8 -10l-17 -101q-3 -9 7 -9h120q81 0 120.5 -48.5t25.5 -128.5zM387 343q4 42 -18.5 70t-62.5 28h-119q-11 0 -12 -10l-33 -187 q-1 -10 8 -10h119q42 0 77.5 29t39.5 70z" />
<glyph unicode="&#xdf;" horiz-adv-x="481" d="M461 463l-4 -20q-7 -34 -32 -66t-57 -49q-17 -8 -3 -17q63 -40 48 -120l-5 -26q-15 -81 -72 -127q-47 -39 -119 -47q-5 -1 -7.5 2t-1.5 8l9 50q2 8 10 10q40 7 67.5 34t33.5 62l5 31q5 35 -12.5 62t-54.5 34q-7 1 -6 10l9 52q2 8 10 10q40 7 68 34.5t33 62.5l3 20 q7 43 -15.5 70.5t-64.5 27.5q-46 0 -77 -27t-39 -71l-93 -531q-13 -74 -73.5 -125.5t-134.5 -51.5q-11 0 -39 2q-12 1 -6 13l25 48q3 7 11 7q9 -1 21 -1q41 0 74.5 28.5t40.5 69.5l94 531q13 75 71 126t137 51q81 0 121.5 -48.5t24.5 -128.5z" />
<glyph unicode="&#xe0;" horiz-adv-x="471" d="M299 516q7 -15 -10 -15h-27q-10 0 -15 6l-98 110q-5 6 -1.5 11.5t11.5 5.5h76q8 0 12 -8zM426 436l-75 -426q-1 -10 -12 -10h-48q-9 0 -8 10l5 28q1 8 -4.5 10.5t-12.5 -3.5q-51 -45 -99 -45q-80 0 -120.5 46.5t-27.5 120.5l20 113q13 74 69.5 120t137.5 46q54 0 83 -43 q5 -7 11 -4.5t8 10.5l5 27q1 10 12 10h48q9 0 8 -10zM320 280q7 40 -17 69t-64 29t-74 -28.5t-42 -69.5l-20 -113q-7 -40 17 -69t64 -29t74.5 29t41.5 69z" />
<glyph unicode="&#xe1;" horiz-adv-x="471" d="M416 617l-136 -110q-8 -6 -17 -6h-27q-8 0 -9.5 4.5t3.5 10.5l92 110q6 8 14 8h76q8 0 9.5 -5.5t-5.5 -11.5zM426 436l-75 -426q-1 -10 -12 -10h-48q-9 0 -8 10l5 28q1 8 -4.5 10.5t-12.5 -3.5q-51 -45 -99 -45q-80 0 -120.5 46.5t-27.5 120.5l20 113q13 74 69.5 120 t137.5 46q54 0 83 -43q5 -7 11 -4.5t8 10.5l5 27q1 10 12 10h48q9 0 8 -10zM320 280q7 40 -17 69t-64 29t-74 -28.5t-42 -69.5l-20 -113q-7 -40 17 -69t64 -29t74.5 29t41.5 69z" />
<glyph unicode="&#xe2;" horiz-adv-x="471" d="M374 517q4 -7 0.5 -11.5t-11.5 -4.5h-41q-4 0 -7 5l-32 65q-6 11 -16 0l-57 -65q-3 -5 -9 -5h-41q-5 0 -7.5 2.5t-2 6t4.5 7.5l106 115q4 4 8 4h33q4 0 8 -4zM426 436l-75 -426q-1 -10 -12 -10h-48q-9 0 -8 10l5 28q1 8 -4.5 10.5t-12.5 -3.5q-51 -45 -99 -45 q-80 0 -120.5 46.5t-27.5 120.5l20 113q13 74 69.5 120t137.5 46q54 0 83 -43q5 -7 11 -4.5t8 10.5l5 27q1 10 12 10h48q9 0 8 -10zM320 280q7 40 -17 69t-64 29t-74 -28.5t-42 -69.5l-20 -113q-7 -40 17 -69t64 -29t74.5 29t41.5 69z" />
<glyph unicode="&#xe3;" horiz-adv-x="471" d="M416 572q-49 -64 -94 -64q-27 0 -58 25l-17 14q-17 14 -37 14q-27 0 -55 -27q-7 -8 -13 -2l-14 12q-6 6 -1 13q48 62 93 62q31 0 57 -23l18 -16q14 -13 37 -13q28 0 57 28q7 7 13 1l13 -11q7 -6 1 -13zM426 436l-75 -426q-1 -10 -12 -10h-48q-9 0 -8 10l5 28 q1 8 -4.5 10.5t-12.5 -3.5q-51 -45 -99 -45q-80 0 -120.5 46.5t-27.5 120.5l20 113q13 74 69.5 120t137.5 46q54 0 83 -43q5 -7 11 -4.5t8 10.5l5 27q1 10 12 10h48q9 0 8 -10zM320 280q7 40 -17 69t-64 29t-74 -28.5t-42 -69.5l-20 -113q-7 -40 17 -69t64 -29t74.5 29 t41.5 69z" />
<glyph unicode="&#xe4;" horiz-adv-x="471" d="M399 564q-3 -19 -20 -33.5t-36 -14.5t-30 14t-8 34q4 19 19.5 32.5t35.5 13.5t31.5 -13.5t7.5 -32.5zM240 564q-3 -19 -19.5 -33.5t-36.5 -14.5q-19 0 -30 14t-8 34q4 19 19.5 32.5t35.5 13.5t31.5 -13.5t7.5 -32.5zM426 436l-75 -426q-1 -10 -12 -10h-48q-9 0 -8 10 l5 28q1 8 -4.5 10.5t-12.5 -3.5q-51 -45 -99 -45q-80 0 -120.5 46.5t-27.5 120.5l20 113q13 74 69.5 120t137.5 46q54 0 83 -43q5 -7 11 -4.5t8 10.5l5 27q1 10 12 10h48q9 0 8 -10zM320 280q7 40 -17 69t-64 29t-74 -28.5t-42 -69.5l-20 -113q-7 -40 17 -69t64 -29t74.5 29 t41.5 69z" />
<glyph unicode="&#xe5;" horiz-adv-x="471" d="M364 612l-5 -30q-6 -36 -34 -58.5t-66 -22.5q-39 0 -58 22.5t-13 58.5l5 30q6 36 33 58t66 22t58.5 -22t13.5 -58zM426 436l-75 -426q-1 -10 -12 -10h-48q-9 0 -8 10l5 28q1 8 -4.5 10.5t-12.5 -3.5q-51 -45 -99 -45q-80 0 -120.5 46.5t-27.5 120.5l20 113 q13 74 69.5 120t137.5 46q54 0 83 -43q5 -7 11 -4.5t8 10.5l5 27q1 10 12 10h48q9 0 8 -10zM326 612q3 19 -8.5 32t-31.5 13t-36 -13t-19 -32l-5 -30q-3 -20 8 -33t31 -13t36.5 13.5t19.5 32.5zM320 280q7 40 -17 69t-64 29t-74 -28.5t-42 -69.5l-20 -113q-7 -40 17 -69 t64 -29t74.5 29t41.5 69z" />
<glyph unicode="&#xe6;" horiz-adv-x="706" d="M658 290l-12 -66q-1 -10 -11 -10h-255q-11 0 -12 -10l-8 -47q-7 -40 16.5 -69t63.5 -29q57 0 99 57q8 8 14 4l48 -27q8 -4 2 -13q-26 -36 -55 -56q-49 -34 -120 -34q-99 0 -136 69q-3 8 -11 0q-67 -69 -123 -69h-39q-55 0 -85.5 34t-23.5 88l2 15q7 54 51.5 87t100.5 33 h123q10 0 11 10l6 34q7 40 -17 68t-65 28q-56 0 -97 -55q-8 -8 -15 -4l-46 27q-10 5 -2 14q26 34 59 54q50 32 113 32q87 0 126 -50q6 -7 14 -1q60 52 136 52q79 0 120 -46.5t28 -119.5zM580 295q7 39 -16.5 66t-65.5 27q-45 0 -76 -28t-39 -70l-2 -11q-1 -3 2 -4.5t7 -1.5 h176q11 0 12 10zM285 179q1 10 -9 10h-123q-22 0 -40 -15t-21 -37l-4 -26q-3 -22 9.5 -37t33.5 -15h39q30 0 62 28t47 61z" />
<glyph unicode="&#xe7;" horiz-adv-x="418" d="M396 369q3 -9 -7 -14l-58 -27q-8 -4 -11 4q-11 26 -32.5 41t-47.5 15q-45 0 -76.5 -28t-38.5 -70l-23 -133q-7 -42 14 -70t66 -28q57 0 99 57q8 8 14 4l48 -27q8 -4 2 -13q-24 -34 -52 -54q-41 -29 -95 -35q-13 -2 -19 -11l-19 -30q-5 -9 2 -13q41 -23 31 -69l-2 -9 q-9 -39 -40.5 -63.5t-71.5 -24.5h-42q-10 0 -9 10l5 28q3 10 12 10h42q17 0 30 11.5t17 28.5l2 9q6 30 -33 39l-14 3q-10 2 -3 12l39 59q6 12 -4 15q-56 14 -82.5 57.5t-15.5 103.5l23 133q12 72 69 119t137 47q70 0 108 -33q22 -20 36 -54z" />
<glyph unicode="&#xe8;" horiz-adv-x="448" d="M295 516q7 -15 -10 -15h-27q-10 0 -15 6l-98 110q-5 6 -1.5 11.5t11.5 5.5h76q8 0 12 -8zM400 290l-12 -66q-1 -10 -11 -10h-255q-11 0 -12 -10l-8 -47q-7 -40 16.5 -69t63.5 -29q57 0 99 57q8 8 14 4l48 -27q8 -4 2 -13q-22 -32 -52 -53q-50 -37 -123 -37 q-80 0 -120 46.5t-27 120.5l23 133q12 72 69 119t137 47q79 0 120 -46.5t28 -119.5zM322 295q7 39 -16.5 66t-65.5 27q-45 0 -76 -28t-39 -70l-2 -11q-1 -3 2 -4.5t7 -1.5h176q11 0 12 10z" />
<glyph unicode="&#xe9;" horiz-adv-x="448" d="M412 617l-136 -110q-8 -6 -17 -6h-27q-8 0 -9.5 4.5t3.5 10.5l92 110q6 8 14 8h76q8 0 9.5 -5.5t-5.5 -11.5zM400 290l-12 -66q-1 -10 -11 -10h-255q-11 0 -12 -10l-8 -47q-7 -40 16.5 -69t63.5 -29q57 0 99 57q8 8 14 4l48 -27q8 -4 2 -13q-22 -32 -52 -53 q-50 -37 -123 -37q-80 0 -120 46.5t-27 120.5l23 133q12 72 69 119t137 47q79 0 120 -46.5t28 -119.5zM322 295q7 39 -16.5 66t-65.5 27q-45 0 -76 -28t-39 -70l-2 -11q-1 -3 2 -4.5t7 -1.5h176q11 0 12 10z" />
<glyph unicode="&#xea;" horiz-adv-x="448" d="M370 517q4 -7 0.5 -11.5t-11.5 -4.5h-41q-4 0 -7 5l-32 65q-6 11 -16 0l-57 -65q-3 -5 -9 -5h-41q-5 0 -7.5 2.5t-2 6t4.5 7.5l106 115q4 4 8 4h33q4 0 8 -4zM400 290l-12 -66q-1 -10 -11 -10h-255q-11 0 -12 -10l-8 -47q-7 -40 16.5 -69t63.5 -29q57 0 99 57q8 8 14 4 l48 -27q8 -4 2 -13q-22 -32 -52 -53q-50 -37 -123 -37q-80 0 -120 46.5t-27 120.5l23 133q12 72 69 119t137 47q79 0 120 -46.5t28 -119.5zM322 295q7 39 -16.5 66t-65.5 27q-45 0 -76 -28t-39 -70l-2 -11q-1 -3 2 -4.5t7 -1.5h176q11 0 12 10z" />
<glyph unicode="&#xeb;" horiz-adv-x="448" d="M395 564q-3 -19 -20 -33.5t-36 -14.5t-30.5 14t-7.5 34q3 19 19 32.5t36 13.5t31.5 -13.5t7.5 -32.5zM236 564q-4 -20 -20.5 -34t-35.5 -14t-30.5 14t-7.5 34q3 19 19 32.5t36 13.5t31 -13.5t8 -32.5zM400 290l-12 -66q-1 -10 -11 -10h-255q-11 0 -12 -10l-8 -47 q-7 -40 16.5 -69t63.5 -29q57 0 99 57q8 8 14 4l48 -27q8 -4 2 -13q-22 -32 -52 -53q-50 -37 -123 -37q-80 0 -120 46.5t-27 120.5l23 133q12 72 69 119t137 47q79 0 120 -46.5t28 -119.5zM322 295q7 39 -16.5 66t-65.5 27q-45 0 -76 -28t-39 -70l-2 -11q-1 -3 2 -4.5 t7 -1.5h176q11 0 12 10z" />
<glyph unicode="&#xec;" horiz-adv-x="211" d="M174 516q3 -6 0 -10.5t-10 -4.5h-27q-11 0 -15 6l-98 110q-5 6 -1.5 11.5t11.5 5.5h76q8 0 12 -8zM166 436l-75 -426q-1 -10 -12 -10h-59q-9 0 -8 10l75 426q1 10 12 10h59q9 0 8 -10z" />
<glyph unicode="&#xed;" horiz-adv-x="211" d="M291 617l-136 -110q-7 -6 -17 -6h-27q-8 0 -9.5 4.5t3.5 10.5l92 110q6 8 14 8h76q8 0 9.5 -5.5t-5.5 -11.5zM166 436l-75 -426q-1 -10 -12 -10h-59q-9 0 -8 10l75 426q1 10 12 10h59q9 0 8 -10z" />
<glyph unicode="&#xee;" horiz-adv-x="211" d="M249 517q4 -7 0.5 -11.5t-11.5 -4.5h-41q-4 0 -7 5l-32 65q-6 11 -16 0l-57 -65q-3 -5 -9 -5h-41q-8 0 -9.5 5t4.5 11l106 115q4 4 8 4h33q4 0 8 -4zM166 436l-75 -426q-1 -10 -12 -10h-59q-9 0 -8 10l75 426q1 10 12 10h59q9 0 8 -10z" />
<glyph unicode="&#xef;" horiz-adv-x="211" d="M274 564q-3 -19 -20 -33.5t-36 -14.5t-30.5 14t-7.5 34q3 19 19 32.5t36 13.5t31.5 -13.5t7.5 -32.5zM115 564q-4 -20 -20.5 -34t-35.5 -14t-30.5 14t-7.5 34q3 19 19 32.5t36 13.5t31 -13.5t8 -32.5zM166 436l-75 -426q-1 -10 -12 -10h-59q-9 0 -8 10l75 426q1 10 12 10 h59q9 0 8 -10z" />
<glyph unicode="&#xf0;" horiz-adv-x="456" d="M400 290l-23 -134q-12 -72 -69.5 -119t-137.5 -47q-79 0 -119 46.5t-28 119.5l23 134q12 70 66 116.5t130 49.5l-42 51l-101 -40q-5 -2 -9.5 -0.5t-3.5 5.5l4 22q2 13 9 16l74 30l-62 77q-4 4 0.5 8.5t11.5 4.5h61q4 0 9 -7l46 -56l110 44q4 2 9 0t4 -6l-5 -25 q-2 -10 -10 -13l-81 -33l119 -143q25 -43 15 -101zM322 295q7 39 -16.5 66t-65.5 27q-45 0 -76.5 -28t-38.5 -70l-24 -139q-7 -39 16 -66t65 -27q45 0 77 28t39 70z" />
<glyph unicode="&#xf1;" horiz-adv-x="482" d="M427 572q-49 -64 -94 -64q-27 0 -58 25l-17 14q-17 14 -37 14q-27 0 -55 -27q-7 -8 -13 -2l-14 12q-6 6 -1 13q48 62 93 62q31 0 57 -23l18 -16q14 -13 37 -13q28 0 57 28q7 7 13 1l13 -11q7 -6 1 -13zM414 280l-47 -270q-1 -10 -12 -10h-59q-9 0 -8 10l47 270 q7 40 -17 69t-64 29q-41 0 -75 -29t-41 -69l-47 -270q-1 -10 -12 -10h-59q-9 0 -8 10l75 426q1 10 12 10h49q9 0 8 -10l-5 -26q-2 -8 3.5 -11t12.5 4q44 43 99 43q80 0 120.5 -46t27.5 -120z" />
<glyph unicode="&#xf2;" horiz-adv-x="456" d="M298 516q3 -6 0 -10.5t-10 -4.5h-27q-11 0 -15 6l-98 110q-5 6 -1.5 11.5t11.5 5.5h76q8 0 12 -8zM400 290l-23 -134q-12 -72 -69.5 -119t-137.5 -47q-79 0 -119 46.5t-28 119.5l23 134q12 72 69 119t137 47q79 0 119.5 -46.5t28.5 -119.5zM322 295q7 39 -16.5 66 t-65.5 27q-45 0 -76.5 -28t-38.5 -70l-24 -139q-7 -39 16 -66t65 -27q45 0 77 28t39 70z" />
<glyph unicode="&#xf3;" horiz-adv-x="456" d="M415 617l-136 -110q-7 -6 -17 -6h-27q-8 0 -9.5 4.5t3.5 10.5l92 110q6 8 14 8h76q8 0 9.5 -5.5t-5.5 -11.5zM400 290l-23 -134q-12 -72 -69.5 -119t-137.5 -47q-79 0 -119 46.5t-28 119.5l23 134q12 72 69 119t137 47q79 0 119.5 -46.5t28.5 -119.5zM322 295 q7 39 -16.5 66t-65.5 27q-45 0 -76.5 -28t-38.5 -70l-24 -139q-7 -39 16 -66t65 -27q45 0 77 28t39 70z" />
<glyph unicode="&#xf4;" horiz-adv-x="456" d="M373 517q4 -7 0.5 -11.5t-11.5 -4.5h-41q-4 0 -7 5l-32 65q-6 11 -16 0l-57 -65q-3 -5 -9 -5h-41q-8 0 -9.5 5t4.5 11l106 115q4 4 8 4h33q4 0 8 -4zM400 290l-23 -134q-12 -72 -69.5 -119t-137.5 -47q-79 0 -119 46.5t-28 119.5l23 134q12 72 69 119t137 47 q79 0 119.5 -46.5t28.5 -119.5zM322 295q7 39 -16.5 66t-65.5 27q-45 0 -76.5 -28t-38.5 -70l-24 -139q-7 -39 16 -66t65 -27q45 0 77 28t39 70z" />
<glyph unicode="&#xf5;" horiz-adv-x="456" d="M415 572q-49 -64 -94 -64q-27 0 -58 25l-17 14q-17 14 -37 14q-27 0 -55 -27q-7 -8 -13 -2l-14 12q-6 5 -1 13q48 62 93 62q31 0 57 -23l18 -16q16 -13 37 -13q28 0 57 28q6 6 13 1l13 -11q7 -6 1 -13zM400 290l-23 -134q-12 -72 -69.5 -119t-137.5 -47q-79 0 -119 46.5 t-28 119.5l23 134q12 72 69 119t137 47q79 0 119.5 -46.5t28.5 -119.5zM322 295q7 39 -16.5 66t-65.5 27q-45 0 -76.5 -28t-38.5 -70l-24 -139q-7 -39 16 -66t65 -27q45 0 77 28t39 70z" />
<glyph unicode="&#xf6;" horiz-adv-x="456" d="M398 564q-3 -19 -20 -33.5t-36 -14.5t-30.5 14t-7.5 34q3 19 19 32.5t36 13.5t31.5 -13.5t7.5 -32.5zM239 564q-4 -20 -20.5 -34t-35.5 -14t-30.5 14t-7.5 34q3 19 19 32.5t36 13.5t31 -13.5t8 -32.5zM400 290l-23 -134q-12 -72 -69.5 -119t-137.5 -47q-79 0 -119 46.5 t-28 119.5l23 134q12 72 69 119t137 47q79 0 119.5 -46.5t28.5 -119.5zM322 295q7 39 -16.5 66t-65.5 27q-45 0 -76.5 -28t-38.5 -70l-24 -139q-7 -39 16 -66t65 -27q45 0 77 28t39 70z" />
<glyph unicode="&#xf7;" d="M332 397q-4 -22 -22 -37t-40 -15q-21 0 -33.5 15t-8.5 37q4 21 21.5 36.5t38.5 15.5q22 0 35 -15t9 -37zM466 255l-6 -33q-1 -10 -12 -10h-401q-9 0 -8 10l6 33q1 10 12 10h401q9 0 8 -10zM276 80q-4 -22 -22 -37t-40 -15q-21 0 -33.5 15t-8.5 37q4 21 21.5 36.5 t38.5 15.5q22 0 35 -15t9 -37z" />
<glyph unicode="&#xf8;" horiz-adv-x="456" d="M400 290l-23 -134q-12 -72 -69.5 -119t-137.5 -47q-79 0 -119 46.5t-28 119.5l23 134q12 72 69 119t137 47q79 0 119.5 -46.5t28.5 -119.5zM322 295q5 34 -8 53q-5 8 -10 -1l-161 -270q-6 -9 1 -12q15 -7 38 -7q45 0 77 28t39 70zM272 370q7 11 -1 14q-12 4 -31 4 q-45 0 -76.5 -28t-38.5 -70l-24 -139q-4 -22 2 -42q1 -5 4.5 -5t5.5 5z" />
<glyph unicode="&#xf9;" horiz-adv-x="481" d="M307 516q7 -15 -10 -15h-27q-10 0 -15 6l-98 110q-5 6 -1.5 11.5t11.5 5.5h76q8 0 12 -8zM436 436l-75 -426q-1 -10 -12 -10h-48q-9 0 -8 10l5 28q2 8 -4 11t-13 -4q-45 -45 -99 -45q-80 0 -120.5 46.5t-27.5 120.5l48 269q1 10 12 10h59q9 0 8 -10l-48 -269 q-7 -40 17 -69t64 -29q41 0 75 28.5t41 69.5l48 269q1 10 12 10h58q9 0 8 -10z" />
<glyph unicode="&#xfa;" horiz-adv-x="481" d="M424 617l-136 -110q-8 -6 -17 -6h-27q-8 0 -9.5 4.5t3.5 10.5l92 110q6 8 14 8h76q8 0 9.5 -5.5t-5.5 -11.5zM436 436l-75 -426q-1 -10 -12 -10h-48q-9 0 -8 10l5 28q2 8 -4 11t-13 -4q-45 -45 -99 -45q-80 0 -120.5 46.5t-27.5 120.5l48 269q1 10 12 10h59q9 0 8 -10 l-48 -269q-7 -40 17 -69t64 -29q41 0 75 28.5t41 69.5l48 269q1 10 12 10h58q9 0 8 -10z" />
<glyph unicode="&#xfb;" horiz-adv-x="481" d="M382 517q4 -7 0.5 -11.5t-11.5 -4.5h-41q-4 0 -7 5l-32 65q-6 11 -16 0l-57 -65q-3 -5 -9 -5h-41q-5 0 -7.5 2.5t-2 6t4.5 7.5l106 115q4 4 8 4h33q4 0 8 -4zM436 436l-75 -426q-1 -10 -12 -10h-48q-9 0 -8 10l5 28q2 8 -4 11t-13 -4q-45 -45 -99 -45q-80 0 -120.5 46.5 t-27.5 120.5l48 269q1 10 12 10h59q9 0 8 -10l-48 -269q-7 -40 17 -69t64 -29q41 0 75 28.5t41 69.5l48 269q1 10 12 10h58q9 0 8 -10z" />
<glyph unicode="&#xfc;" horiz-adv-x="481" d="M407 564q-3 -19 -20 -33.5t-36 -14.5t-30.5 14t-7.5 34q3 19 19 32.5t36 13.5t31.5 -13.5t7.5 -32.5zM248 564q-4 -20 -20.5 -34t-35.5 -14t-30.5 14t-7.5 34q3 19 19 32.5t36 13.5t31 -13.5t8 -32.5zM436 436l-75 -426q-1 -10 -12 -10h-48q-9 0 -8 10l5 28q2 8 -4 11 t-13 -4q-45 -45 -99 -45q-80 0 -120.5 46.5t-27.5 120.5l48 269q1 10 12 10h59q9 0 8 -10l-48 -269q-7 -40 17 -69t64 -29q41 0 75 28.5t41 69.5l48 269q1 10 12 10h58q9 0 8 -10z" />
<glyph unicode="&#xfd;" horiz-adv-x="481" d="M424 617l-136 -110q-8 -6 -17 -6h-27q-8 0 -9.5 4.5t3.5 10.5l92 110q6 8 14 8h76q8 0 9.5 -5.5t-5.5 -11.5zM436 436l-87 -493q-14 -79 -68.5 -128.5t-139.5 -49.5q-82 0 -121 48q-16 19 -23 41q-3 10 7 14l57 26q8 4 13 -4q22 -56 79 -56q41 0 75 28.5t41 69.5l18 101 q2 8 -4 11t-13 -4q-40 -40 -88 -40q-80 0 -120.5 46.5t-27.5 120.5l48 269q1 10 12 10h59q9 0 8 -10l-48 -269q-7 -40 17 -69t64 -29q44 0 77 30.5t39 67.5l48 269q1 10 12 10h58q9 0 8 -10z" />
<glyph unicode="&#xfe;" horiz-adv-x="472" d="M414 280l-20 -113q-13 -73 -69.5 -120t-127.5 -47q-48 0 -83 44q-5 6 -11 3t-8 -11l-44 -251q-1 -10 -12 -10h-59q-9 0 -8 10l147 835q3 10 12 10h49q11 0 8 -10l-37 -210q-2 -8 3.5 -11t12.5 4q43 43 99 43q80 0 120.5 -46t27.5 -120zM335 280q7 40 -17 69t-64 29 t-74 -28.5t-42 -69.5l-20 -113q-7 -40 17 -69t64 -29t74.5 29t41.5 69z" />
<glyph unicode="&#xff;" horiz-adv-x="481" d="M407 564q-3 -19 -20 -33.5t-36 -14.5t-30.5 14t-7.5 34q3 19 19 32.5t36 13.5t31.5 -13.5t7.5 -32.5zM248 564q-4 -20 -20.5 -34t-35.5 -14t-30.5 14t-7.5 34q3 19 19 32.5t36 13.5t31 -13.5t8 -32.5zM436 436l-87 -493q-14 -79 -68.5 -128.5t-139.5 -49.5q-82 0 -121 48 q-16 19 -23 41q-3 10 7 14l57 26q8 4 13 -4q22 -56 79 -56q41 0 75 28.5t41 69.5l18 101q2 8 -4 11t-13 -4q-40 -40 -88 -40q-80 0 -120.5 46.5t-27.5 120.5l48 269q1 10 12 10h59q9 0 8 -10l-48 -269q-7 -40 17 -69t64 -29q44 0 77 30.5t39 67.5l48 269q1 10 12 10h58 q9 0 8 -10z" />
<glyph unicode="&#x131;" horiz-adv-x="211" d="M166 436l-75 -426q-1 -10 -12 -10h-59q-9 0 -8 10l75 426q1 10 12 10h59q9 0 8 -10z" />
<glyph unicode="&#x141;" horiz-adv-x="430" d="M385 59l-8 -49q-1 -10 -12 -10h-334q-9 0 -8 10l37 211q1 7 -2 9t-8 -3l-22 -19q-9 -7 -14 0l-28 32q-5 7 3 14l77 66q13 11 17 31l47 269q3 10 12 10h59q11 0 8 -10l-34 -194q-1 -7 2.5 -8t9.5 4l31 26q8 8 14 0l27 -31q5 -7 -3 -15l-87 -74q-13 -12 -16 -29l-39 -220 q-1 -10 8 -10h255q11 0 8 -10z" />
<glyph unicode="&#x142;" horiz-adv-x="211" d="M247 417q5 -7 -3 -15l-86 -73q-13 -12 -16 -29l-51 -290q-1 -10 -12 -10h-59q-9 0 -8 10l37 212q1 7 -2 9t-8 -3l-23 -20q-9 -7 -14 0l-28 32q-5 7 3 14l79 67q12 11 16 31l47 268q3 10 12 10h59q11 0 8 -10l-34 -193q-2 -7 2 -8t11 4l30 25q8 8 14 0z" />
<glyph unicode="&#x152;" horiz-adv-x="755" d="M776 620l-8 -49q-3 -10 -12 -10h-273q-12 0 -12 -10q0 -2 0.5 -5l1.5 -9t2 -10q4 -25 -1 -54l-19 -109q-1 -10 8 -10h210q10 0 9 -10l-9 -49q-1 -10 -12 -10h-210q-9 0 -11 -9l-21 -119q-4 -22 -12 -39.5t-13.5 -27t-5.5 -13.5q0 -8 9 -8h272q11 0 8 -10l-8 -49 q-1 -10 -12 -10h-376q-30 -10 -69 -10h-31q-80 0 -120 46t-27 121l55 316q13 75 69.5 121t137.5 46h31q38 0 65 -10h376q11 0 8 -10zM395 473q7 41 -16.5 69.5t-63.5 28.5h-31q-41 0 -75 -28.5t-41 -69.5l-55 -316q-7 -41 16.5 -69.5t63.5 -28.5h31q41 0 75 29t41 69z" />
<glyph unicode="&#x153;" horiz-adv-x="723" d="M675 290l-12 -66q-1 -10 -11 -10h-255q-11 0 -12 -10l-8 -47q-7 -40 16.5 -69t63.5 -29q57 0 99 57q8 8 14 4l48 -27q8 -4 2 -13q-27 -38 -58 -58q-51 -32 -117 -32q-81 0 -121 48q-7 7 -16 -1q-58 -47 -138 -47t-120 46.5t-27 120.5l23 133q13 74 69.5 120t136.5 46 q83 0 125 -50q6 -8 18 1q59 49 132 49q79 0 120 -46.5t28 -119.5zM597 295q7 39 -16.5 66t-65.5 27q-45 0 -76 -28t-39 -70l-2 -11q-1 -3 1.5 -4.5t7.5 -1.5h176q11 0 12 10zM321 290q7 41 -17 69.5t-64 28.5q-41 0 -74.5 -29t-40.5 -69l-23 -133q-7 -40 16.5 -69t63.5 -29 q41 0 75 29t41 69z" />
<glyph unicode="&#x160;" horiz-adv-x="458" d="M419 791l-91 -101q-4 -5 -10 -5h-46q-6 0 -9 5l-55 101q-5 10 8 10h48q5 0 8 -5l26 -56q4 -11 13 0l46 56q3 5 11 5h48q11 0 3 -10zM441 552q4 -8 -7 -14l-58 -26q-8 -4 -11 4q-23 55 -79 55h-16q-45 0 -76.5 -27t-39.5 -71q-3 -17 2 -31.5t12 -24.5t26 -22.5t30 -18 l37 -18.5l4 -2l4 -2q32 -16 52 -29.5t41.5 -36.5t28 -56t-0.5 -75q-13 -74 -69.5 -120.5t-137.5 -46.5h-43q-71 0 -106 32q-24 20 -36 57q-3 9 6 14l57 27q10 5 13 -5q21 -56 78 -56h43q42 0 76 28.5t41 69.5q4 24 -2 43t-24.5 34.5t-34.5 25t-45 23.5q-15 7 -22 10.5 t-20.5 11t-21 13t-19 14t-17.5 16.5t-14 18t-11.5 21.5t-6.5 24.5t-2.5 28.5t3.5 32.5q13 73 70.5 120t136.5 47h16q72 0 110 -36q21 -20 33 -52z" />
<glyph unicode="&#x161;" horiz-adv-x="433" d="M382 620l-106 -115q-4 -4 -8 -4h-33q-4 0 -8 4l-64 115q-4 6 -1 11t11 5h42q5 0 8 -5l32 -64q6 -11 16 0l55 64q3 5 8 5h42q8 0 10 -4.5t-4 -11.5zM398 370q3 -9 -7 -14l-52 -24q-8 -4 -13 4q-23 55 -81 55h-30q-41 0 -64 -17t-28 -44q-3 -17 1.5 -29t24.5 -20.5 t28.5 -10.5t42.5 -9q5 -1 8 -1.5t7 -1.5l8 -2q65 -14 97 -40.5t22 -81.5q-11 -62 -61 -103t-127 -41h-30q-71 0 -109 36q-22 21 -32 52q-3 9 7 13l52 24q10 4 13 -4q9 -25 31 -40.5t50 -15.5h30q40 0 65 19.5t31 49.5q2 11 0 19.5t-10 15t-15.5 10.5t-23 8.5t-25 6.5 t-29.5 6q-13 3 -20 4q-133 27 -115 126q12 66 62 101t120 35h30q63 0 100 -27q29 -21 42 -59z" />
<glyph unicode="&#x178;" horiz-adv-x="411" d="M399 741q-3 -18 -18.5 -32t-34.5 -14t-29.5 13.5t-6.5 32.5q3 18 18 31.5t34 13.5t29.5 -13t7.5 -32zM249 741q-3 -18 -19 -32t-35 -14t-29 13.5t-6 32.5q3 19 17.5 32t33.5 13t30 -13t8 -32zM470 615l-230 -325l-49 -280q-1 -10 -12 -10h-59q-9 0 -8 10l49 280l-116 325 q-5 15 12 15h70q6 0 8 -6l74 -240q1 -5 4 -6.5t7 0t7 6.5l158 240q4 6 10 6h69q18 0 6 -15z" />
<glyph unicode="&#x17d;" horiz-adv-x="411" d="M376 791l-91 -101q-4 -5 -10 -5h-46q-7 0 -9 5l-55 101q-5 10 8 10h48q5 0 8 -5l26 -56q4 -11 13 0l46 56q3 5 11 5h48q11 0 3 -10zM429 616l-331 -533q-9 -14 6 -14h231q11 0 8 -10l-8 -49q-1 -10 -12 -10h-344q-16 0 -7 14l329 533q9 14 -6 14h-207q-11 0 -8 10l8 49 q3 10 12 10h322q16 0 7 -14z" />
<glyph unicode="&#x17e;" horiz-adv-x="408" d="M341 620l-106 -115q-4 -4 -8 -4h-33q-4 0 -8 4l-64 115q-4 6 -1 11t11 5h42q5 0 8 -5l32 -64q6 -11 16 0l55 64q3 5 8 5h42q8 0 10 -4.5t-4 -11.5zM385 430l-270 -346q-12 -15 6 -15h207q11 0 8 -10l-8 -49q-1 -10 -12 -10h-337q-18 0 -6 15l269 347q5 7 3 11t-10 4h-186 q-9 0 -8 10l9 48q1 10 11 10h317q8 0 10 -4t-3 -11z" />
<glyph unicode="&#x192;" d="M473 625l-24 -48q-4 -7 -11 -7q-9 1 -21 1q-41 0 -75 -28.5t-41 -69.5l-16 -93q-1 -10 8 -10h72q11 0 8 -10l-8 -48q-1 -10 -12 -10h-72q-9 0 -12 -10l-61 -350q-13 -74 -73.5 -125.5t-133.5 -51.5q-11 0 -39 2q-12 1 -6 13l25 48q3 7 11 7q9 -1 21 -1q41 0 74.5 28.5 t40.5 69.5l63 360q3 10 -8 10h-26q-9 0 -8 10l8 48q3 10 12 10h26q11 0 12 10l15 83q14 74 74 125.5t133 51.5q10 0 38 -2q12 -1 6 -13z" />
<glyph unicode="&#x2c6;" horiz-adv-x="494" d="M393 517q4 -7 0.5 -11.5t-11.5 -4.5h-41q-4 0 -7 5l-32 65q-6 11 -16 0l-57 -65q-3 -5 -9 -5h-41q-8 0 -9.5 5t4.5 11l106 115q4 4 8 4h33q4 0 8 -4z" />
<glyph unicode="&#x2c7;" horiz-adv-x="494" d="M412 620l-106 -115q-4 -4 -8 -4h-33q-4 0 -8 4l-64 115q-4 6 -1 11t11 5h42q5 0 8 -5l32 -64q6 -11 16 0l55 64q3 5 8 5h42q8 0 10 -4.5t-4 -11.5z" />
<glyph unicode="&#x2c9;" horiz-adv-x="494" d="M407 596l-8 -48q-3 -10 -12 -10h-202q-11 0 -8 10l8 48q1 10 12 10h202q9 0 8 -10z" />
<glyph unicode="&#x2d8;" horiz-adv-x="494" d="M415 626l-8 -45q-6 -35 -34.5 -57.5t-68.5 -22.5h-45q-40 0 -60 22t-14 58l8 45q1 10 11 10h18q10 0 9 -10l-5 -25q-4 -19 8.5 -33.5t33.5 -14.5h45q20 0 37.5 14t21.5 34l5 25q1 10 11 10h18q10 0 9 -10z" />
<glyph unicode="&#x2d9;" horiz-adv-x="494" d="M351 583l-5 -30q-4 -22 -22 -36t-42 -14q-25 0 -37 13.5t-8 36.5l5 30q4 23 21 36.5t42 13.5q24 0 37 -14t9 -36z" />
<glyph unicode="&#x2da;" horiz-adv-x="494" d="M383 612l-5 -30q-6 -36 -34 -58.5t-66 -22.5q-39 0 -58 22.5t-13 58.5l5 30q6 36 33 58t66 22t58.5 -22t13.5 -58zM345 612q3 19 -8.5 32t-31.5 13t-36 -13t-19 -32l-5 -30q-3 -20 8 -33t31 -13t36.5 13.5t19.5 32.5z" />
<glyph unicode="&#x2db;" horiz-adv-x="494" d="M221 -189l-5 -28q-3 -11 -13 -10q-50 10 -74.5 45t-16.5 84l21 119q1 10 11 10h37q10 0 9 -10l-23 -126q-5 -27 7.5 -47t40.5 -27q8 -2 6 -10z" />
<glyph unicode="&#x2dc;" horiz-adv-x="494" d="M435 572q-49 -64 -94 -64q-27 0 -58 25l-17 14q-17 14 -37 14q-27 0 -55 -27q-7 -8 -13 -2l-14 12q-5 6 -1 13q48 62 93 62q31 0 57 -23l18 -16q14 -13 37 -13q28 0 57 28q7 7 13 1l13 -11q7 -6 1 -13z" />
<glyph unicode="&#x2dd;" horiz-adv-x="494" d="M406 621l-89 -115q-5 -5 -9 -5h-14q-14 0 -7 13l60 115q3 7 10 7h42q7 0 9.5 -4.5t-2.5 -10.5zM300 621l-89 -115q-5 -5 -9 -5h-14q-14 0 -7 13l59 115q4 7 10 7h43q7 0 9.5 -4.5t-2.5 -10.5z" />
<glyph unicode="&#x3a9;" horiz-adv-x="710" d="M656 0h-230v66q146 129 146 310q0 118 -57.5 192.5t-160.5 74.5q-100 0 -162 -75t-62 -193q0 -181 148 -309v-66h-230v66h153q-154 123 -154 322q0 141 86 232.5t222 91.5q141 0 221 -89t80 -233q0 -107 -45 -189.5t-110 -134.5h155v-66z" />
<glyph unicode="&#x3bc;" horiz-adv-x="492" d="M442 436l-75 -426q-1 -10 -12 -10h-48q-9 0 -8 10l5 28q2 8 -4 11t-13 -4q-45 -45 -99 -45q-45 0 -83 18q-11 5 -13 -7l-28 -161q-1 -10 -12 -10h-59q-9 0 -8 10l103 586q1 10 12 10h59q9 0 8 -10l-48 -269q-7 -40 17 -69t64 -29q41 0 75 28.5t41 69.5l48 269q1 10 12 10 h58q9 0 8 -10z" />
<glyph unicode="&#x3c0;" horiz-adv-x="653" d="M590 62l15 -55q-25 -14 -68 -14q-61 0 -90.5 36.5t-29.5 96.5v312h-179v-302q0 -85 -14 -136h-81q16 57 16 140v298q-55 0 -101 -23q-3 7 -10.5 26.5t-12.5 29.5q56 29 143 29h425v-62h-107v-303q0 -80 62 -80q14 0 32 7z" />
<glyph unicode="&#x2013;" horiz-adv-x="550" d="M500 255l-6 -33q-1 -10 -12 -10h-451q-9 0 -8 10l6 33q1 10 12 10h451q9 0 8 -10z" />
<glyph unicode="&#x2014;" horiz-adv-x="826" d="M776 255l-6 -33q-1 -10 -12 -10h-727q-9 0 -8 10l6 33q1 10 12 10h727q9 0 8 -10z" />
<glyph unicode="&#x2018;" horiz-adv-x="158" d="M193 646q3 -7 -5 -12q-38 -23 -53 -91q-1 -10 8 -10h11q9 0 8 -10l-10 -60q-3 -10 -12 -10h-69q-11 0 -8 10l9 55q12 67 40 104q25 32 61 50q11 5 14 -5z" />
<glyph unicode="&#x2019;" horiz-adv-x="158" d="M182 622l-10 -55q-11 -63 -42 -104q-23 -28 -57 -47q-10 -5 -13 4l-7 20q-3 8 6 13q38 24 52 89q2 10 -9 10h-12q-9 0 -8 10l11 60q1 10 11 10h69q10 0 9 -10z" />
<glyph unicode="&#x201a;" horiz-adv-x="158" d="M88 92l-9 -55q-11 -65 -41 -104q-24 -31 -58 -49q-11 -6 -14 4l-7 21q-3 7 5 12q39 25 53 90q2 10 -8 10h-12q-10 0 -9 10l11 61q1 10 12 10h69q9 0 8 -10z" />
<glyph unicode="&#x201c;" horiz-adv-x="287" d="M326 646q3 -8 -5 -13q-39 -23 -53 -89q-4 -11 8 -11h11q9 0 8 -10l-10 -60q-3 -10 -12 -10h-68q-11 0 -8 10l9 55q12 68 42 106q22 29 58 47q11 6 14 -4zM193 646q3 -7 -5 -12q-38 -23 -53 -91q-1 -10 8 -10h11q9 0 8 -10l-10 -60q-3 -10 -12 -10h-69q-11 0 -8 10l9 55 q11 68 45 110q22 26 56 44q11 5 14 -5z" />
<glyph unicode="&#x201d;" horiz-adv-x="287" d="M316 622l-10 -55q-10 -58 -35 -94q-23 -36 -64 -57q-9 -5 -13 4l-7 20q-3 8 5 13q37 23 52 89q2 10 -9 10h-11q-9 0 -8 10l11 60q1 10 11 10h69q10 0 9 -10zM182 622l-10 -55q-10 -55 -31 -89q-24 -39 -68 -62q-10 -5 -13 4l-7 20q-3 8 6 13q38 24 52 89q2 10 -9 10h-12 q-9 0 -8 10l11 60q1 10 11 10h69q10 0 9 -10z" />
<glyph unicode="&#x201e;" horiz-adv-x="287" d="M222 92l-9 -55q-11 -67 -43 -107q-23 -29 -57 -46q-10 -6 -13 4l-7 21q-3 8 4 12q40 28 53 90q2 10 -8 10h-11q-10 0 -9 10l11 61q1 10 12 10h69q9 0 8 -10zM88 92l-9 -55q-11 -69 -44 -108q-20 -25 -55 -45q-11 -6 -14 4l-7 21q-3 7 5 12q39 25 53 90q2 10 -8 10h-12 q-10 0 -9 10l11 61q1 10 12 10h69q9 0 8 -10z" />
<glyph unicode="&#x2020;" horiz-adv-x="404" d="M422 455l-9 -55q-3 -11 -13 -10l-150 12q-13 1 -13 -11l-2 -72l-113 -534q-1 -10 -12 -10h-15q-9 0 -8 10l74 534l25 72q2 6 0 9t-9 2l-156 -12q-5 -1 -7.5 2t-1.5 8l9 55q2 12 13 10l153 -13q11 -1 13 11l15 156q2 11 12 11h53q11 0 8 -11l-40 -156q-2 -6 0.5 -9t8.5 -2 l156 13q5 1 7.5 -2t1.5 -8z" />
<glyph unicode="&#x2021;" horiz-adv-x="404" d="M422 455l-9 -55q-3 -11 -13 -10l-150 12q-13 1 -13 -11l-1 -70l-18 -73q-2 -6 0.5 -9t8.5 -2l148 13q5 1 7.5 -2t1.5 -8l-9 -55q-3 -11 -13 -10l-146 13q-11 2 -13 -10l-81 -393q-1 -10 -12 -10h-15q-9 0 -8 10l56 393q1 5 -1.5 8t-7.5 2l-151 -13q-5 -1 -7.5 2t-1.5 8 l9 55q3 11 13 10l146 -13q11 -1 13 11l6 72l25 71q2 6 0 9t-9 2l-156 -12q-5 -1 -7.5 2t-1.5 8l9 55q2 12 13 10l153 -13q11 -1 13 11l15 156q2 11 12 11h53q11 0 8 -11l-40 -156q-2 -6 0.5 -9t8.5 -2l156 13q5 1 7.5 -2t1.5 -8z" />
<glyph unicode="&#x2022;" horiz-adv-x="500" d="M400 326l-3 -21q-9 -61 -56.5 -98.5t-113.5 -37.5h-4q-66 0 -99 37t-24 99l3 21q9 61 56.5 98.5t114.5 37.5h4q66 0 98.5 -37t23.5 -99z" />
<glyph unicode="&#x2026;" horiz-adv-x="1000" d="M266 40q-4 -22 -22 -37t-40 -15t-34 15t-8 37q4 21 21.5 36.5t38.5 15.5q23 0 35.5 -15t8.5 -37zM563 40q-4 -22 -22 -37t-40 -15t-34 15t-8 37q4 21 21.5 36.5t38.5 15.5q23 0 35.5 -15t8.5 -37zM858 40q-4 -22 -22 -37t-40 -15t-34 15t-8 37q4 21 21.5 36.5t38.5 15.5 q23 0 35.5 -15t8.5 -37z" />
<glyph unicode="&#x2030;" horiz-adv-x="716" d="M659 185l-18 -100q-7 -38 -35.5 -61.5t-69.5 -23.5t-61.5 23.5t-13.5 61.5l18 100q7 38 35.5 61.5t69.5 23.5t61.5 -23.5t13.5 -61.5zM265 545l-18 -100q-7 -38 -35.5 -61.5t-69.5 -23.5t-61.5 23.5t-13.5 61.5l18 100q7 38 35.5 61.5t69.5 23.5t61.5 -23.5t13.5 -61.5z M452 616l-369 -610q-3 -6 -10 -6h-24q-15 0 -7 14l369 610q5 6 10 6h24q15 0 7 -14zM427 185l-18 -100q-7 -38 -35.5 -61.5t-69.5 -23.5t-61.5 23.5t-13.5 61.5l18 100q7 38 35.5 61.5t69.5 23.5t61.5 -23.5t13.5 -61.5zM607 185q3 15 -6.5 26.5t-25.5 11.5 q-15 0 -27.5 -11.5t-15.5 -26.5l-18 -100q-3 -15 6 -26t24 -11q16 0 29 11t16 26zM213 545q3 15 -6.5 26.5t-24.5 11.5t-28 -11.5t-16 -26.5l-18 -100q-3 -15 6 -26t25 -11q15 0 28 11t16 26zM375 185q3 15 -6.5 26.5t-25.5 11.5q-15 0 -27.5 -11.5t-15.5 -26.5l-18 -100 q-3 -15 6 -26t24 -11q16 0 29 11t16 26z" />
<glyph unicode="&#x2039;" horiz-adv-x="319" d="M288 445l-8 -50q-2 -5 -6 -8l-157 -100q-13 -8 -3 -16l122 -101q3 -3 3 -8l-9 -50q-1 -8 -6.5 -10.5t-11.5 2.5l-168 138q-3 3 -3 8l10 57q2 5 6 8l217 138q8 5 11.5 2.5t2.5 -10.5z" />
<glyph unicode="&#x203a;" horiz-adv-x="319" d="M276 307l-10 -57q0 -3 -5 -8l-219 -138q-8 -5 -11.5 -2.5t-2.5 10.5l9 50q0 5 5 8l158 101q13 8 3 16l-123 100q-4 3 -2 8l8 50q1 8 6.5 10.5t11.5 -2.5l170 -138q4 -3 2 -8z" />
<glyph unicode="&#x2044;" horiz-adv-x="156" d="M288 616l-369 -610q-3 -6 -10 -6h-24q-15 0 -7 14l369 610q5 6 10 6h24q15 0 7 -14z" />
<glyph unicode="&#x20ac;" d="M524 552q4 -8 -7 -14l-58 -26q-8 -4 -11 4q-24 55 -79 55h-31q-41 0 -75 -28.5t-41 -69.5l-5 -32q-2 -10 8 -10h149q9 0 8 -10l-8 -44q-1 -10 -11 -10h-149q-10 0 -12 -10l-15 -85q-2 -10 8 -10h149q11 0 8 -10l-7 -43q-1 -10 -12 -10h-149q-10 0 -12 -10l-5 -32 q-6 -41 17 -69.5t63 -28.5h31q57 0 99 57q8 8 14 4l48 -27q8 -4 2 -13q-23 -32 -53 -54q-49 -36 -122 -36h-31q-80 0 -119 46t-28 121l5 32q2 10 -8 10h-60q-9 0 -8 10l7 43q3 10 12 10h60q10 0 12 10l15 85q2 10 -8 10h-60q-10 0 -9 10l8 44q1 10 12 10h60q10 0 12 10l5 32 q11 74 68.5 120.5t138.5 46.5h31q71 0 109 -35q22 -21 34 -53z" />
<glyph unicode="&#x2113;" horiz-adv-x="493" d="M406 53q-64 -66 -132 -66q-54 0 -84 32q-36 38 -36 119v110q-18 -19 -59 -64l-33 39q16 17 46 50t46 50v229q0 86 32.5 131t89.5 45q50 0 74 -32.5t24 -73.5q0 -117 -113 -263q-3 -3 -15.5 -19.5t-17.5 -21.5v-180q0 -91 63 -91q40 0 86 50q5 -8 14.5 -22.5t14.5 -21.5z M318 613q0 23 -9.5 39t-28.5 16q-52 0 -52 -111v-160q17 23 20 28q70 103 70 188z" />
<glyph unicode="&#x2122;" horiz-adv-x="382" d="M399 538l-30 -168q-1 -10 -12 -10h-12q-9 0 -8 10l13 72q1 10 -5.5 11.5t-12.5 -6.5l-32 -41q-5 -5 -10 -5h-4q-5 0 -7 5l-20 41q-2 5 -6.5 6t-8 -2t-4.5 -9l-13 -72q-1 -10 -12 -10h-12q-9 0 -8 10l30 168q1 10 12 10h12q5 0 8 -5l32 -81q7 -15 18 0l62 81q3 5 10 5h12 q9 0 8 -10zM187 538l-2 -11q-1 -10 -12 -10h-27q-9 0 -12 -10l-24 -137q-1 -10 -12 -10h-12q-9 0 -8 10l24 137q3 10 -8 10h-27q-9 0 -8 10l2 11q1 10 12 10h106q9 0 8 -10z" />
<glyph unicode="&#x2126;" horiz-adv-x="710" d="M656 0h-230v66q146 129 146 310q0 118 -57.5 192.5t-160.5 74.5q-100 0 -162 -75t-62 -193q0 -181 148 -309v-66h-230v66h153q-154 123 -154 322q0 141 86 232.5t222 91.5q141 0 221 -89t80 -233q0 -107 -45 -189.5t-110 -134.5h155v-66z" />
<glyph unicode="&#x212e;" horiz-adv-x="661" d="M615 292h-451v-201q65 -65 160 -65q136 0 216 132q24 -14 36 -22q-49 -73 -107 -110.5t-145 -37.5q-128 0 -206.5 87.5t-78.5 216.5q0 131 78 218t208 87q131 0 208.5 -86.5t81.5 -218.5zM486 330v163q-67 67 -162 67q-96 0 -160 -66v-164h322z" />
<glyph unicode="&#x2202;" horiz-adv-x="576" d="M530 485q0 -88 -25 -193q-15 -58 -39 -109.5t-58 -96t-81 -71t-101 -26.5q-80 0 -129 52t-49 137q0 141 80 230.5t183 89.5q49 0 84 -21t50 -52h2q5 35 5 70q0 83 -36.5 126.5t-102.5 43.5q-51 0 -95 -27q-3 8 -9.5 27t-10.5 29q52 33 126 33q95 0 150.5 -63t55.5 -179z M437 351q-27 87 -118 87q-77 0 -134.5 -77t-57.5 -186q0 -56 27.5 -89t73.5 -33q72 0 127.5 81.5t81.5 216.5z" />
<glyph unicode="&#x2206;" horiz-adv-x="608" d="M598 0h-572v39q40 111 119 330.5t119 330.5h99q39 -110 117.5 -330t117.5 -331v-39zM503 67q-58 167 -176 499q-5 14 -9.5 34t-5.5 23h-3q-5 -22 -15 -55l-177 -501h386z" />
<glyph unicode="&#x220f;" horiz-adv-x="719" d="M634 -230h-81v861h-387v-861h-81v930h549v-930z" />
<glyph unicode="&#x2211;" horiz-adv-x="631" d="M592 -230h-570v37q38 51 152 200.5t176 231.5q-51 69 -152.5 209t-152.5 209v43h522v-66h-418q48 -66 143.5 -197t143.5 -196l-306 -405h462v-66z" />
<glyph unicode="&#x2212;" d="M452 255l-6 -33q-1 -10 -12 -10h-401q-9 0 -8 10l6 33q1 10 12 10h401q9 0 8 -10z" />
<glyph unicode="&#x2215;" horiz-adv-x="156" d="M288 616l-369 -610q-3 -6 -10 -6h-24q-15 0 -7 14l369 610q5 6 10 6h24q15 0 7 -14z" />
<glyph unicode="&#x2219;" d="M304 238q-4 -22 -22 -37t-40 -15q-21 0 -33.5 15t-8.5 37q4 21 21.5 36.5t38.5 15.5q22 0 35 -15t9 -37z" />
<glyph unicode="&#x221a;" horiz-adv-x="513" d="M518 729l-192 -741h-66q-23 56 -69 169.5t-69 170.5l-54 -33q-9 16 -27 46q19 12 59 36t59 36l132 -327q42 159 166 643h61z" />
<glyph unicode="&#x221e;" horiz-adv-x="783" d="M732 294q0 -70 -45 -117.5t-116 -47.5q-57 0 -103.5 31t-77.5 80h-2q-75 -111 -178 -111q-73 0 -118.5 45t-45.5 116q0 73 45 118.5t117 45.5q106 0 180 -110h2q73 110 177 110q72 0 118.5 -44.5t46.5 -115.5zM664 293q0 44 -25.5 73t-73.5 29q-79 0 -144 -103 q28 -49 65.5 -76.5t77.5 -27.5q49 0 74.5 30t25.5 75zM357 292q-28 46 -66.5 74.5t-77.5 28.5q-49 0 -74.5 -30t-25.5 -75t28 -73.5t72 -28.5q79 0 144 104z" />
<glyph unicode="&#x222b;" horiz-adv-x="491" d="M409 676q-22 9 -46 9q-82 0 -82 -99v-646q0 -79 -40 -123t-113 -44q-44 0 -70 11q11 46 16 61q22 -9 46 -9q82 0 82 99v646q0 78 40 123t114 45q44 0 70 -13q-12 -40 -17 -60z" />
<glyph unicode="&#x2248;" horiz-adv-x="552" d="M479 418q-48 -77 -113 -77q-49 0 -97 31q-47 30 -80 30q-46 0 -81 -61l-34 37q47 77 115 77q46 0 95 -31q47 -30 80 -30q46 0 81 61zM479 208q-48 -77 -113 -77q-49 0 -97 31q-47 30 -80 30q-46 0 -81 -61l-34 38q46 76 115 76q48 0 95 -30q46 -31 80 -31q47 0 81 62z " />
<glyph unicode="&#x2260;" horiz-adv-x="552" d="M466 162h-225l-58 -129h-54l58 129h-100v53h124l71 157h-195v53h219l59 130h54l-59 -130h106v-53h-130l-71 -157h201v-53z" />
<glyph unicode="&#x2264;" horiz-adv-x="552" d="M466 0h-379v53h379v-53zM466 133l-379 194v33l379 195v-59l-302 -151v-2l302 -151v-59z" />
<glyph unicode="&#x2265;" horiz-adv-x="552" d="M466 0h-379v53h379v-53zM466 328l-379 -195v59l302 151v2l-302 151v59l379 -194v-33z" />
<glyph unicode="&#x25ca;" horiz-adv-x="559" d="M498 350q-34 -59 -102 -175t-102 -175h-42q-106 184 -203 349q136 234 203 351h42q34 -59 102 -175.5t102 -174.5zM431 350q-52 90 -158 270q-26 -45 -78.5 -135t-78.5 -135q43 -76 157 -271q26 46 78.5 135.5t79.5 135.5z" />
<glyph unicode="&#x25fc;" horiz-adv-x="445" d="M0 445h445v-445h-445v445z" />
<glyph unicode="&#xe043;" horiz-adv-x="463" d="M484 620l-8 -49q-3 -10 -12 -10h-256q-11 0 -12 -10l-33 -187q-1 -10 8 -10h210q10 0 9 -10l-9 -49q-1 -10 -12 -10h-210q-9 0 -12 -10l-34 -196q-1 -10 8 -10h256q11 0 8 -10l-8 -49q-1 -10 -12 -10h-334q-9 0 -8 10l107 610q3 10 12 10h334q11 0 8 -10z" />
<glyph unicode="&#xf730;" horiz-adv-x="513" d="M449 320l-28 -163q-13 -74 -70 -120.5t-137 -46.5h-31q-80 0 -120 46t-27 121l28 163q13 74 70 120.5t137 46.5h31q80 0 120 -46t27 -121zM370 320q7 41 -16.5 69.5t-63.5 28.5h-31q-41 0 -75 -28.5t-41 -69.5l-28 -163q-7 -40 16 -69t64 -29h31q40 0 74.5 29t41.5 69z " />
<glyph unicode="&#xf731;" horiz-adv-x="513" d="M385 59l-8 -49q-1 -10 -12 -10h-304q-9 0 -8 10l8 49q3 10 12 10h103q11 0 12 10l44 249q2 8 -3.5 10.5t-12.5 -3.5l-67 -58q-8 -7 -14 0l-29 36q-6 7 3 14l184 157q6 3 8 3h27q9 0 8 -10l-70 -398q-1 -10 8 -10h103q11 0 8 -10z" />
<glyph unicode="&#xf732;" horiz-adv-x="513" d="M448 332q-5 -25 -16.5 -46t-22.5 -33t-35 -25t-36 -18t-43.5 -16t-39.5 -14q-82 -30 -102 -44q-27 -21 -32 -49l-2 -11q0 -7 9 -7h259q5 0 7.5 -2t1.5 -6l-9 -49q-2 -12 -12 -12h-338q-5 0 -7.5 2t-1.5 6l11 60q7 38 25 66.5t47.5 48t52.5 29.5t61 24q11 4 38 13t36 12.5 t26 12t23.5 15.5t14 19t9.5 26q7 37 -15.5 60.5t-68.5 23.5h-40q-49 0 -96 -56q-5 -7 -13 -4l-47 26q-11 5 -4 14q26 37 61 59q49 30 110 30h41q82 0 121 -42t27 -113z" />
<glyph unicode="&#xf733;" horiz-adv-x="513" d="M433 310l-3 -14q-8 -37 -38 -70.5t-62 -47.5q-7 -4 -1 -10q27 -15 46 -50.5t11 -73.5l-6 -31q-16 -81 -72 -128t-137 -47h-30q-67 0 -106 32q-24 21 -37 58q-3 8 8 13l56 27q9 4 12 -5q10 -27 32 -41.5t48 -14.5h30q40 0 74.5 29t41.5 69l6 36q7 40 -17 69t-64 29h-75 q-10 0 -9 10l9 48q1 10 12 10h75q41 0 75.5 29t40.5 70l2 14q6 41 -17.5 69.5t-63.5 28.5h-30q-57 0 -99 -55q-7 -9 -14 -5l-48 27q-9 4 -2 14q27 39 62 59q47 29 113 29h30q82 0 123 -48.5t24 -128.5z" />
<glyph unicode="&#xf734;" horiz-adv-x="513" d="M441 59l-8 -49q-1 -10 -12 -10h-72q-11 0 -12 -10l-23 -133q-1 -10 -12 -10h-59q-9 0 -8 10l23 133q1 10 -8 10h-254q-9 0 -8 10l11 64l337 398q6 4 9 4h68q9 0 8 -10l-68 -387q-1 -10 8 -10h72q11 0 8 -10zM332 383l-3 1q-13 -24 -26 -40l-219 -259q-6 -7 -4.5 -11.5 t9.5 -4.5h173q11 0 12 10l46 259z" />
<glyph unicode="&#xf735;" horiz-adv-x="513" d="M460 466l-8 -49q-3 -10 -12 -10h-235q-11 0 -12 -10l-32 -181q-1 -10 8 -10h78q82 0 122.5 -47t24.5 -127l-4 -20q-17 -81 -72 -128t-136 -47h-31q-69 0 -107 33q-23 20 -35 56q-3 9 6 14l57 27q10 4 13 -5q21 -56 78 -56h31q40 0 74.5 29t41.5 69l6 36q7 40 -17 69 t-64 29h-157q-9 0 -8 10l56 318q1 10 12 10h314q9 0 8 -10z" />
<glyph unicode="&#xf736;" horiz-adv-x="513" d="M479 552q4 -8 -7 -14l-57 -26q-9 -5 -12 4q-20 55 -80 55h-30q-41 0 -75 -28.5t-41 -69.5l-25 -144q-2 -8 3.5 -10.5t12.5 3.5q46 43 99 43h30q71 0 111 -47t27 -120l-7 -41q-13 -74 -70.5 -120.5t-137.5 -46.5h-30q-80 0 -119.5 46t-26.5 121l55 316q13 74 69.5 120.5 t136.5 46.5h30q67 0 105 -31q25 -21 39 -57zM356 198q7 40 -17.5 69t-64.5 29h-30q-41 0 -74.5 -29t-40.5 -69l-7 -41q-7 -40 16.5 -69t63.5 -29h30q41 0 75.5 29t41.5 69z" />
<glyph unicode="&#xf737;" horiz-adv-x="513" d="M468 466l-18 -102q-7 -43 -25 -77t-46.5 -60t-50.5 -41t-58 -37q-8 -5 -12 -7q-55 -33 -86.5 -65t-39.5 -74l-26 -147q-3 -10 -12 -10h-59q-11 0 -8 10l26 147q7 38 22.5 68.5t42.5 55t46 38t54 35.5q35 21 53.5 33.5t43 33.5t38 44.5t18.5 52.5l6 33q1 10 -8 10h-255 q-11 0 -8 10l8 49q1 10 12 10h334q9 0 8 -10z" />
<glyph unicode="&#xf738;" horiz-adv-x="513" d="M475 463l-4 -20q-7 -36 -37 -69.5t-63 -48.5q-3 -2 -3.5 -5t2.5 -5q26 -16 45.5 -51t11.5 -73l-5 -26q-16 -81 -71.5 -128t-136.5 -47h-31q-82 0 -122 47.5t-24 127.5l5 26q7 38 36.5 72t65.5 51q4 1 4.5 5t-2.5 5q-28 15 -48 48t-12 71l4 20q17 82 72.5 129.5 t135.5 47.5h31q82 0 122 -48.5t24 -128.5zM397 473q6 41 -17 69.5t-63 28.5h-31q-41 0 -75.5 -28.5t-40.5 -69.5l-3 -20q-6 -41 16.5 -70t63.5 -29h31q41 0 75.5 29t40.5 70zM347 188q7 40 -17 69t-64 29h-31q-41 0 -74.5 -29t-40.5 -69l-5 -31q-7 -40 16 -69t64 -29h31 q40 0 74.5 29t41.5 69z" />
<glyph unicode="&#xf739;" horiz-adv-x="513" d="M440 320l-55 -315q-13 -74 -70.5 -120.5t-137.5 -46.5h-30q-75 0 -111 38q-19 19 -31 52q-3 9 7 13l57 27q9 4 12 -5q20 -56 79 -56h30q40 0 74.5 29t41.5 69l19 109q2 8 -4 11t-13 -4q-43 -44 -98 -44h-30q-71 0 -110.5 47t-26.5 120l13 76q13 74 69.5 120.5t136.5 46.5 h30q80 0 120.5 -46t27.5 -121zM361 320q7 41 -17 69.5t-64 28.5h-30q-41 0 -75 -28.5t-41 -69.5l-13 -76q-7 -40 17 -69.5t64 -29.5h30q40 0 74.5 29.5t41.5 69.5z" />
</font>
</defs>
</svg>
